<svg width="1080" height="1080" viewBox="0 0 1080 1080" fill="none" xmlns="http://www.w3.org/2000/svg">
<rect width="1080" height="1080" rx="540" fill="white"/>
<path d="M237.397 508.206C229.652 509.654 221.754 510.107 213.789 509.554C208.735 509.202 203.529 508.516 198.651 507.063C196.355 506.429 193.673 505.42 192.073 503.586C203.648 493.697 221.225 500.204 233.463 506.263C234.758 506.911 236.054 507.558 237.397 508.206Z" fill="#C2CAC2"/>
<path d="M899.738 417.91C899.957 416.524 899.652 415.29 899.066 414.347C898.957 413.347 898.609 412.351 897.832 411.413C883.137 393.859 871.033 374.172 862.049 353.155C857.51 342.552 853.918 331.553 850.941 320.402C848.169 310.056 845.63 299.519 840.628 289.968C822.536 255.457 773.32 254.899 750.365 284.442C740.5 297.07 735.765 311.909 733.131 327.285C727.681 329.414 721.541 329.552 715.892 327.871C710.438 326.237 705.379 322.402 702.264 317.877C701.678 317.029 700.906 316.372 700.044 315.957C691.984 286.205 687.383 255.309 679.937 225.499C669.258 183.066 651.123 138.79 614.711 112.129C577.051 84.5294 526.549 84.4675 484.897 102.754C441.35 121.88 410.02 161.55 391.452 204.321C373.485 245.654 366.806 290.149 363.605 334.835C363.324 335.269 363.096 335.75 362.91 336.274C362.772 336.655 362.681 336.993 362.543 337.326C362.495 337.422 362.219 338.141 362.219 338.141C361.852 339.003 361.433 339.865 361.019 340.732C360.233 342.266 359.399 343.805 358.465 345.248C357.951 346.02 357.441 346.834 356.879 347.606C356.784 347.749 356.784 347.701 356.741 347.796C356.693 347.844 356.693 347.844 356.555 348.039C356.274 348.378 355.993 348.763 355.665 349.149C354.54 350.55 353.321 351.85 352.006 353.108C351.396 353.737 350.787 354.318 350.125 354.899C349.748 355.189 349.42 355.528 349.043 355.818C348.996 355.866 348.667 356.109 348.481 356.304C347.114 357.371 345.652 358.348 344.189 359.272C342.632 360.201 341.074 361.082 339.416 361.868C339.083 362.015 338.754 362.163 338.373 362.311C338.326 362.358 337.711 362.606 337.568 362.654C336.715 363.001 335.815 363.297 334.915 363.597C334.629 363.697 334.348 363.797 334.062 363.945C329.842 355.623 326.655 346.334 321.358 339.122C309.592 323.193 290.61 321.664 272.628 326.694C254.36 331.777 237.807 343.071 226.356 358.105C212.708 375.982 208.502 397.622 204.439 419.167C199.18 446.829 191.335 473.862 180.431 499.841C179.512 501.999 180.159 504.038 181.465 505.448C181.612 505.782 181.855 506.063 182.098 506.344C186.628 516.137 199.661 518.043 209.345 519.138C222.754 520.653 236.359 519.405 249.311 515.642C249.925 515.442 250.497 515.194 250.921 514.904L250.968 514.856C251.159 514.804 251.349 514.708 251.535 514.561C253.45 515.294 255.37 515.98 257.328 516.571H257.375C257.475 516.999 257.675 517.376 257.918 517.8C265.726 530.404 279.478 535.777 292.977 540.102C294.549 562.757 294.459 585.431 292.696 608.039C291.901 609.049 291.634 610.387 292.182 612.002C295.621 622.434 301.194 631.923 308.935 639.816C314.885 645.875 321.996 650.2 329.256 654.425C335.444 676.628 340.112 699.188 342.879 722.062C342.555 722.733 342.379 723.596 342.441 724.544C343.322 739.063 353.402 750.443 366.073 756.783C375.095 761.27 384.884 762.794 394.753 763.456C394.806 763.742 394.715 764.028 394.815 764.361C399.074 781.686 401.289 799.378 401.503 817.236C401.527 818.808 402.308 820.084 403.466 820.97C407.219 833.351 419.109 841.415 431.123 845.335C446.871 850.485 466.196 849.246 478.995 861.207C481.506 863.599 483.116 866.099 484.159 868.8C484.173 869.753 484.421 870.558 484.859 871.22C486.074 875.917 485.907 881.019 486.274 886.492C486.812 894.061 489.161 901.22 493.257 907.589C497.206 913.772 502.236 918.84 507.876 923.237C506.133 943.844 504.437 964.498 502.694 985.105C502.289 989.969 510.182 991.998 512.116 987.444C516.484 976.898 527.316 971.639 534.871 963.669C540.501 957.725 544.522 949.427 543.688 941.386C547.746 932.273 553.196 924.047 560.241 916.94C567.801 909.442 576.589 904.502 585.802 899.363C593.218 895.204 600.773 890.469 605.475 883.162C611.81 873.302 609.457 862.474 608.2 851.585C607.876 848.827 607.833 846.207 608.038 843.725C608.176 843.297 608.261 842.816 608.257 842.339L608.252 841.91C611.058 822.337 630.04 810.767 648.179 803.493C667.881 795.581 691.274 789.231 701.354 768.548C705.56 759.96 707.227 750.023 709.323 740.373C710.076 739.601 710.485 738.543 710.562 737.257C710.595 736.352 710.633 735.495 710.666 734.59C712.781 726.316 715.668 718.508 721.437 712.135C722.385 711.882 723.28 711.296 724.033 710.382C743.306 686.469 729.22 655.235 731.297 628.002C732.455 612.979 740.214 602.623 752.528 594.582C763.05 587.613 774.492 582.016 783.171 572.646C783.219 572.551 783.309 572.499 783.357 572.403C784.391 571.579 785.086 570.284 785.157 568.612C785.748 553.788 786.339 538.964 786.977 524.135C787.496 523.935 788.02 523.74 788.54 523.54C807.741 517.347 831.839 519.853 845.387 501.976C846.182 500.918 846.639 499.718 846.668 498.527C847.892 497.364 848.483 495.497 848.121 493.597C845.954 482.431 843.791 471.318 841.624 460.152C843.186 459.557 844.748 458.914 846.268 458.418C867.313 451.354 895.879 443.98 899.738 417.91ZM769.043 542.465C769.824 537.359 772.811 533.167 776.717 529.966C776.331 539.307 775.945 548.653 775.559 558.042C771.353 553.721 768.133 548.624 769.043 542.465ZM815.853 483.131C815.806 483.036 815.758 482.988 815.706 482.893V482.845C815.796 482.607 815.839 482.369 815.839 482.079C815.882 481.65 815.872 481.221 815.915 480.792C815.915 480.745 815.915 480.745 815.915 480.697C816.463 479.116 817.63 477.339 818.092 476.615C821.536 471.227 826.628 467.388 832.249 464.354C833.845 472.333 835.393 480.364 836.936 488.342C832.201 487.223 827.471 486.147 822.736 485.027C821.164 484.67 816.73 484.594 815.853 483.131ZM410.697 800.583C409.706 788.212 407.763 775.951 404.914 763.842C408.106 763.937 411.254 763.985 414.398 764.037C421.262 764.223 429.779 763.713 435.934 767.481C442.807 771.764 436.41 777.194 431.975 780.262C423.677 786.002 416.537 792.733 410.697 800.583ZM328.094 565.32C328.294 566.077 328.589 566.692 328.98 567.211C326.522 575.061 318.314 580.611 312.05 585.231C309.13 587.418 306.306 589.747 303.671 592.167C304.338 575.962 304.243 559.761 303.238 543.532C314.203 547.467 325.197 553.354 328.094 565.32ZM213.79 509.554C208.735 509.202 203.529 508.516 198.651 507.063C196.355 506.429 193.673 505.419 192.073 503.586C203.648 493.697 221.225 500.203 233.463 506.263C234.758 506.91 236.054 507.558 237.397 508.206C229.657 509.654 221.754 510.102 213.79 509.554ZM341.622 662.114C348.991 667.53 354.712 674.308 355.479 684.302C356.074 692.343 353.95 699.95 350.863 707.286C348.543 692.071 345.414 677.018 341.622 662.114ZM523.162 960.945C520.152 963.56 517.046 966.132 514.083 968.795C515.126 955.724 516.222 942.753 517.365 929.73C522.171 932.659 527.168 935.303 532.156 937.847C532.156 937.894 532.208 937.99 532.256 938.037C532.746 938.837 533.089 939.69 533.342 940.5C533.075 941.791 533.332 942.977 533.918 944.015C533.823 950.641 527.959 956.872 523.162 960.945Z" fill="#FFFDFE"/>
<path d="M562.604 99.5248C592.104 109.647 612.949 135.308 625.329 163.036C640.553 197.133 643.435 235.288 648.584 271.81C653.276 305.059 659.917 339.06 677.337 368.27C685.73 382.341 696.605 395.355 710.386 404.41C721.589 411.765 738.847 418.005 746.274 402.424C749.803 395.017 750.232 386.014 751.075 377.978C752.152 367.717 752.628 357.409 753.185 347.115C754.3 326.385 755.92 305.649 763.236 286.033C765.113 281.003 756.725 277.735 754.433 282.604C746.555 299.319 739.838 316.534 734.227 334.135C724.747 334.078 714.601 333.177 706.908 327.266C699.449 321.535 696.071 312.113 693.447 303.444C686.587 280.755 680.647 257.762 674.207 234.95C668.148 213.495 661.636 192.007 651.457 172.091C641.835 153.261 628.978 136.194 613.835 121.456C612.401 120.06 610.748 119.922 609.295 120.417C597.215 106.994 582.372 96.2761 564.886 90.2789C559.093 88.2878 556.835 97.5432 562.604 99.5248Z" fill="#E5E5E5"/>
<path d="M879.255 398.999C873.267 391.982 869.776 382.946 866.251 374.539C857.939 354.704 850.317 334.583 843.305 314.252C842.424 311.694 840.147 310.837 838.042 311.094C835.569 296.327 831.801 281.508 821.208 270.366C816.978 265.917 810.352 272.762 814.572 277.202C826.628 289.878 828.653 309.798 830.734 326.366C833.178 345.839 833.859 365.536 832.73 385.128C832.268 393.126 832.04 401.519 829.558 409.207C828.558 412.308 827.09 415.657 824.566 417.853C822.184 419.925 819.297 420.03 816.477 421.106C816.044 406.139 815.058 391.187 813.419 376.301C811.771 361.32 809.832 346.529 803.426 332.734C800.463 326.351 792.284 329.567 790.326 334.645C784.405 349.988 782.304 366.241 780.113 382.441C779.665 385.752 779.218 389.062 778.77 392.373C777.893 393.45 777.298 394.836 777.174 396.527C775.802 415.385 772.258 434.044 766.647 452.102C763.827 461.177 760.492 470.075 756.605 478.744C753.571 485.513 750.384 492.658 745.306 498.174C743.792 499.822 741.863 501.047 739.857 502.18C740.929 480.173 741.429 458.104 739.104 436.34C738.142 427.299 725.052 427.213 724.814 436.549C723.69 481.34 720.989 526.069 716.826 570.674C716.654 568.607 716.488 566.544 716.302 564.482C714.897 548.777 713.491 533.067 712.086 517.362C711.562 511.483 706.122 509.464 702.102 511.164C698.339 511.241 694.333 514.294 694.399 518.443C694.947 550.963 695.495 583.483 696.038 616.008C696.2 625.707 696.362 635.41 696.529 645.108C695.171 651.744 693.385 658.312 690.951 664.781C687.335 674.399 681.757 685.05 672.106 689.756C663.47 693.967 653.515 691.938 645.469 687.36C625.644 676.08 620.566 651.244 616.464 630.661C610.462 600.536 605.637 570.165 604.565 539.426C604.413 535.02 601.045 532.79 597.62 532.657C594.557 527.131 584.178 528.403 584.206 536.268C584.416 592.5 584.625 648.733 584.835 704.966C584.987 745.998 586.388 787.688 583.749 828.883C580.772 829.65 577.571 829.664 574.874 828.83C567.443 826.529 562.075 819.727 559.112 812.801C554.897 802.96 554.744 791.804 554.373 781.291C553.977 770.225 553.61 759.16 553.229 748.094C551.648 702.251 550.066 656.402 548.485 610.559C548.366 607.058 546.213 604.924 543.617 604.128C540.13 600.222 531.351 601.937 530.727 609.015C524.534 679.462 520.657 750.095 519.047 820.789C513.674 815.34 512.888 800.364 512.14 795.491C510.01 781.558 508.219 767.572 506.719 753.558C503.756 725.849 502.008 698.026 501.389 670.169C501.351 668.392 500.779 666.972 499.893 665.896C499.893 665.882 499.893 665.863 499.893 665.848C499.817 658.008 486.865 655.988 485.812 664.243L479.157 716.189C472.127 708.853 472.074 694.524 471.241 685.407C469.778 669.392 468.459 653.368 467.277 637.329C464.886 604.862 463.086 572.356 461.838 539.826C461.485 530.637 447.195 530.823 447.547 540.036C448.228 557.751 449.076 575.462 450.091 593.163C447.542 593.958 445.527 596.145 445.661 599.789C446.652 626.564 445.618 653.339 443.732 680.053C442.717 694.41 441.907 708.934 440.492 723.362C436.705 722.095 432.19 721.648 428.855 720.204C411.697 712.759 399.36 696.387 393.153 679.138C385.317 657.374 384.998 633.985 384.226 611.135C383.407 587.018 381.983 562.929 380.197 538.864C379.201 525.398 378.153 511.926 376.924 498.479C375.786 485.985 374.161 473.528 369.536 461.786C368.574 459.347 366.335 458.495 364.263 458.695C362.286 456.346 358.266 456.77 356.46 459.495C354.307 462.744 351.125 467.764 347.129 469.012C342.408 470.489 339.055 466.726 336.497 463.32C330.938 455.913 327.255 447.039 323.907 438.479C316.528 419.611 309.464 400.609 302.252 381.674C301.38 379.393 299.389 378.473 297.446 378.511C294.664 377.301 290.863 378.854 290.601 381.998C288.752 382.894 287.38 384.766 288.009 387.329C300.137 436.511 311.288 485.923 321.544 535.529C313.956 529.866 306.92 523.549 302.176 515.156C296.121 504.453 293.74 492.106 291.491 480.149C286.128 451.631 280.893 423.083 275.596 394.55C274.995 391.32 272.114 390.615 269.718 391.525C267.693 389.606 263.949 389.21 262.01 392.316C255.67 402.481 250.973 413.68 248.515 425.427C246.167 436.64 246.529 450.34 238.06 459.114C229.943 467.521 218.077 468.427 207.597 471.918C198.137 475.067 189.158 482.36 190.168 493.297C190.382 495.621 191.649 497.079 193.788 497.85C206.673 502.5 219.558 507.158 232.448 511.798C243.619 515.818 254.751 519.467 266.621 520.31C283.703 534.143 304.086 542.07 324.569 549.505C324.616 549.653 324.716 549.734 324.774 549.867C325.031 553.026 325.307 556.184 325.545 559.347C323.211 567.821 320.001 575.981 315.704 583.712C312.965 588.642 309.878 593.386 306.396 597.821C304.257 600.546 301.561 603.118 300.461 606.424C298.065 607.577 296.483 610.549 298.227 613.093C310.417 630.87 325.593 645.98 343.375 658.155C344.028 658.603 344.68 658.789 345.323 658.851C345.552 659.546 345.809 660.218 346.009 660.932C346.424 662.414 347.453 663.328 348.662 663.824C354.788 690.842 341.417 722.424 361.467 745.803C379.763 767.143 409.711 757.378 433.276 765.876C429.365 778.962 423.125 790.965 412.278 800.221C410.568 801.683 409.254 803.236 408.177 804.832C405.753 806.027 403.966 808.528 404.1 811.334C404.743 824.877 416.304 834.556 428.074 839.324C437.62 843.187 447.909 844.588 458.012 843.244C471.245 850.89 482.035 862.494 487.956 876.946C489.123 879.799 491.643 881.381 494.229 881.752C495.682 890.736 498.349 899.501 503.013 907.861C508.667 918.002 517.203 926.986 527.931 931.74C532.675 933.841 538.558 935.351 543.278 932.255C547.975 929.173 548.29 924.433 547.737 919.622L565.919 905.284C568.563 903.197 571.269 901.144 573.965 899.077C579.285 896.905 583.992 894.133 587.46 889.655C593.562 886.673 598.296 881.495 601.045 874.76C605.785 863.127 603.003 850.528 600.016 838.829C599.773 837.881 599.364 837.08 598.835 836.409C600.369 835.046 601.75 833.484 602.974 831.76C603.384 831.455 603.784 831.107 604.16 830.674C618.651 813.873 636.942 801.197 657.907 793.862C668.553 790.137 679.061 786.416 686.973 777.971C694.123 770.34 698.61 760.722 701.868 750.89C705.408 740.22 707.527 729.179 708.847 718.013C710.023 716.693 711.272 715.422 712.358 714.05C720.813 703.361 724.981 691.276 725.39 677.662C725.824 663.09 722.456 648.552 724.571 634.014C725.991 624.287 728.915 614.894 731.402 605.4C731.459 605.362 731.526 605.352 731.578 605.314L770.196 577.11C773.811 574.471 775.231 569.24 771.553 565.82C759.968 555.06 763.45 540.445 765.742 526.46C765.908 525.44 766.104 524.431 766.275 523.411C767.314 523.635 768.438 523.659 769.629 523.34C790.659 517.686 811.433 511.155 831.916 503.752C836.994 501.918 838.97 495.797 834.979 491.739C830.806 487.499 825.214 486.761 820.693 483.298C817.278 480.678 816.42 476.201 816.168 471.98C817.625 471.842 819.083 471.099 820.04 469.708C829.691 455.713 848.164 452.288 862.802 445.852C874.439 440.737 892.483 429.895 892.083 414.947C891.878 407.073 883.771 404.291 879.255 398.999Z" fill="#E5E5E5"/>
<path d="M533.913 944.016C533.818 950.642 527.959 956.872 523.157 960.945C520.147 963.56 517.041 966.133 514.078 968.795C515.121 955.724 516.217 942.753 517.36 929.73C522.167 932.66 527.163 935.303 532.151 937.847C532.151 937.895 532.203 937.99 532.251 938.038C532.741 938.838 533.084 939.691 533.337 940.5C533.07 941.791 533.327 942.977 533.913 944.016Z" fill="#C2CAC2"/>
<path d="M328.975 567.211C326.517 575.061 318.309 580.611 312.045 585.231C309.125 587.418 306.301 589.747 303.667 592.167C304.333 575.962 304.238 559.761 303.233 543.532C314.199 547.467 325.197 553.354 328.089 565.315C328.294 566.078 328.589 566.692 328.975 567.211Z" fill="#C2CAC2"/>
<path d="M836.941 488.343C832.206 487.223 827.476 486.147 822.741 485.027C821.165 484.67 816.73 484.594 815.853 483.127C815.806 483.032 815.758 482.984 815.706 482.889V482.841C815.796 482.603 815.839 482.365 815.839 482.074C815.882 481.645 815.872 481.217 815.915 480.788C815.915 480.74 815.915 480.74 815.915 480.693C816.463 479.111 817.63 477.334 818.092 476.61C821.536 471.223 826.628 467.384 832.249 464.349C833.845 472.338 835.393 480.364 836.941 488.343Z" fill="#C2CAC2"/>
<path d="M776.717 529.966C776.331 539.307 775.945 548.653 775.559 558.042C771.353 553.722 768.133 548.625 769.043 542.466C769.824 537.359 772.811 533.167 776.717 529.966Z" fill="#C2CAC2"/>
<path d="M355.479 684.302C356.074 692.343 353.95 699.95 350.863 707.286C348.543 692.076 345.414 677.019 341.622 662.119C348.991 667.53 354.712 674.308 355.479 684.302Z" fill="#C2CAC2"/>
<path d="M431.976 780.262C423.678 786.007 416.532 792.733 410.697 800.583C409.706 788.212 407.763 775.951 404.914 763.843C408.106 763.938 411.254 763.985 414.398 764.038C421.262 764.224 429.78 763.714 435.934 767.482C442.808 771.764 436.41 777.195 431.976 780.262Z" fill="#C2CAC2"/>
<path d="M714.601 378.912C686.692 331.015 682.867 275.192 668.896 222.708C658.154 182.371 639.796 139.338 603.055 116.207C564.057 91.7226 512.869 96.5765 474.285 119.441C435.134 142.649 408.72 183.248 393.815 225.485C376.029 275.816 373.156 329.739 371.079 382.603C370.841 389.039 360.79 389.187 361.076 382.751C361.424 374.077 361.772 365.398 362.262 356.676C362.581 349.383 363.048 342.133 363.605 334.835C366.807 290.149 373.485 245.649 391.453 204.321C410.021 161.55 441.355 121.88 484.898 102.755C526.549 84.4631 577.051 84.5297 614.711 112.129C651.119 138.795 669.258 183.072 679.938 225.5C687.383 255.309 691.984 286.205 700.044 315.958C701.707 322.031 703.512 328.057 705.503 334.026C710.09 347.725 715.811 361.077 723.242 373.829C726.472 379.402 717.879 384.485 714.601 378.912Z" fill="#494949"/>
<path d="M742.663 330.524C742.663 330.524 742.615 330.572 742.663 330.62C742.672 331.239 742.586 331.906 742.31 332.482C741.991 333.583 741.291 334.497 740.252 335.035C737.461 336.412 734.569 337.408 731.578 338.07C725.643 339.442 719.45 339.346 713.515 337.574C710.69 336.712 708.008 335.559 705.508 334.026C700.844 331.329 696.79 327.533 693.623 322.96C692.065 320.745 693.208 317.392 695.38 316.12C696.89 315.191 698.605 315.262 700.049 315.953C700.911 316.367 701.682 317.025 702.268 317.873C705.384 322.398 710.442 326.233 715.897 327.866C721.541 329.548 727.686 329.41 733.136 327.28C733.845 327.033 734.507 326.737 735.17 326.394C737.58 325.218 740.543 325.694 742.01 328.152C742.448 328.814 742.653 329.715 742.663 330.524Z" fill="#494949"/>
<path d="M899.066 414.347C899.414 418.581 894.231 422.564 890.887 418.562C890.502 418.091 890.063 417.576 889.673 417.105C875.559 400.066 863.707 381.379 854.69 361.12C846.606 342.947 842.562 323.903 836.236 305.13C830.31 287.734 818.264 275.096 799.415 273.086C781.618 271.205 765.303 279.498 755.519 294.317C748.25 305.287 744.668 317.725 742.667 330.524C742.667 330.524 742.62 330.572 742.667 330.619C742.534 331.239 742.448 331.863 742.315 332.482C741.148 340.503 740.505 348.611 739.862 356.575C739.385 362.968 729.382 363.163 729.859 356.723C730.34 350.569 730.868 344.324 731.583 338.069C732.007 334.444 732.526 330.862 733.141 327.28C735.77 311.899 740.505 297.065 750.375 284.438C773.33 254.895 822.551 255.457 840.638 289.963C845.639 299.514 848.173 310.051 850.95 320.397C853.928 331.548 857.519 342.547 862.059 353.15C871.038 374.172 883.147 393.859 897.842 411.408C898.604 412.351 898.952 413.346 899.066 414.347Z" fill="#494949"/>
<path d="M899.738 417.91C899.957 416.524 899.652 415.29 899.067 414.347C896.823 410.903 890.769 410.517 890.03 415.481C889.945 416.052 889.854 416.581 889.673 417.105C887.139 429.242 876.388 436.978 865.355 441.475C852.523 446.762 838.647 449.206 826.462 456.104C823.294 457.914 819.807 460.3 816.563 463.111C811.062 467.955 806.341 474.124 805.869 480.945C805.836 481.802 805.846 482.66 805.907 483.565C805.907 483.613 805.907 483.66 805.907 483.66L805.912 483.851C806.636 491.082 812.672 492.992 818.788 494.426C824.333 495.678 829.877 496.979 835.374 498.232C837.623 498.77 839.866 499.261 842.115 499.799C843.982 500.247 845.592 499.651 846.668 498.541C847.893 497.379 848.483 495.512 848.121 493.611C845.954 482.446 843.791 471.332 841.624 460.167C843.186 459.571 844.749 458.928 846.268 458.433C867.313 451.354 895.88 443.981 899.738 417.91ZM822.742 485.027C821.165 484.67 816.73 484.594 815.854 483.127C815.806 483.031 815.758 482.984 815.706 482.889V482.841C815.506 482.322 815.639 481.602 815.916 480.788C815.916 480.74 815.916 480.74 815.916 480.693C816.463 479.111 817.63 477.334 818.092 476.61C821.536 471.223 826.629 467.384 832.249 464.349C833.845 472.328 835.393 480.359 836.937 488.338C832.207 487.223 827.476 486.152 822.742 485.027Z" fill="#494949"/>
<path d="M809.118 351.322C808.927 348.711 806.846 346.23 804.04 346.392C801.463 346.539 798.91 348.678 799.11 351.469C799.72 359.901 800.329 368.337 800.939 376.768C801.125 379.379 803.211 381.86 806.017 381.698C808.594 381.551 811.147 379.412 810.947 376.621C810.337 368.184 809.728 359.753 809.118 351.322Z" fill="#494949"/>
<path d="M816.558 463.111C816.453 468.97 816.253 474.833 815.91 480.697C815.91 480.745 815.91 480.745 815.91 480.792C815.867 481.221 815.877 481.65 815.834 482.079C815.839 482.364 815.796 482.603 815.701 482.846V482.893C814.681 488.004 806.922 488.357 805.897 483.655C805.897 483.655 805.897 483.608 805.897 483.56C805.797 483.179 805.74 482.707 805.783 482.226C805.826 481.798 805.816 481.369 805.859 480.94C807.531 452.045 806.531 423.145 802.963 394.469C802.153 388.048 812.157 387.995 812.966 394.321C815.829 417.148 817.03 440.141 816.558 463.111Z" fill="#494949"/>
<path d="M845.277 494.892C843.539 493.201 839.866 492.878 838.228 494.997C837.342 496.155 836.403 497.265 835.369 498.232C819.783 513.756 792.246 507.301 774.273 519.286H774.226C766.252 524.597 759.568 533.224 758.949 543.046V543.094C758.863 543.856 758.873 544.571 758.887 545.333C759.221 555.141 765.575 562.672 772.668 568.902C773.973 570.074 775.321 571.198 776.669 572.275C778.789 574.009 781.552 573.871 783.343 572.413C784.377 571.589 785.072 570.293 785.144 568.621C785.734 553.797 786.325 538.974 786.963 524.145C787.482 523.945 788.006 523.749 788.526 523.549C807.727 517.357 831.825 519.863 845.373 501.985C846.168 500.928 846.626 499.727 846.654 498.537C846.788 497.25 846.34 495.969 845.277 494.892ZM769.043 542.465C769.824 537.359 772.811 533.167 776.717 529.966C776.331 539.307 775.945 548.653 775.559 558.042C771.353 553.721 768.133 548.624 769.043 542.465Z" fill="#494949"/>
<path d="M783.566 404.605C778.369 450.406 770.133 495.797 758.901 540.502C757.334 546.747 767.047 549.162 768.619 542.898C779.851 498.193 788.087 452.802 793.284 406.997C794.003 400.695 784.295 398.208 783.566 404.605Z" fill="#494949"/>
<path d="M783.348 572.413C783.3 572.508 783.205 572.556 783.162 572.656C774.488 582.026 763.041 587.628 752.519 594.592C740.205 602.633 732.445 612.993 731.288 628.012C729.211 655.245 743.296 686.479 724.023 710.392C723.276 711.306 722.38 711.892 721.427 712.145C717.302 713.397 712.286 709.134 715.559 705.085C716.169 704.313 716.726 703.542 717.288 702.775C733.522 679.286 717.702 647.033 722.266 620.572C722.351 619.857 722.485 619.186 722.618 618.471C724.266 610.826 727.744 604.343 732.521 598.793C736.032 594.549 740.315 590.867 745.078 587.604C754.276 581.273 764.399 576.362 772.673 568.903C773.945 567.788 775.212 566.578 776.384 565.273C780.694 560.585 787.278 567.683 783.348 572.413Z" fill="#494949"/>
<path d="M727.081 476.063C725.314 523.454 723.552 570.846 721.784 618.238C721.546 624.687 731.55 624.516 731.792 618.09C733.56 570.698 735.322 523.307 737.089 475.915C737.328 469.465 727.32 469.637 727.081 476.063Z" fill="#494949"/>
<path d="M733.002 428.266C730.249 428.423 728.086 430.548 728.072 433.344L727.991 447.648C727.977 450.268 730.406 452.731 733.069 452.579C735.822 452.421 737.985 450.297 737.999 447.501L738.08 433.196C738.094 430.571 735.66 428.113 733.002 428.266Z" fill="#494949"/>
<path d="M372.623 338.655C370.293 345.31 366.759 351.417 362.267 356.675C356.227 363.768 348.4 369.313 339.445 372.59C338.831 372.838 338.211 373.038 337.597 373.238C334.944 374.134 332.248 372.271 331.447 369.756C330.699 367.479 332.047 365.078 334.077 363.954C334.362 363.806 334.644 363.706 334.929 363.606C335.83 363.306 336.73 363.006 337.583 362.663C337.726 362.616 338.34 362.368 338.388 362.32C338.769 362.172 339.097 362.025 339.431 361.877C341.089 361.091 342.646 360.21 344.204 359.281C345.666 358.352 347.129 357.381 348.496 356.314C348.681 356.123 349.015 355.875 349.058 355.828C349.434 355.537 349.763 355.199 350.139 354.908C350.796 354.327 351.411 353.746 352.021 353.117C353.335 351.86 354.555 350.554 355.679 349.159C356.008 348.773 356.289 348.387 356.57 348.049C356.708 347.858 356.708 347.858 356.756 347.806C356.803 347.711 356.803 347.758 356.894 347.615C357.456 346.844 357.965 346.029 358.48 345.258C359.414 343.814 360.247 342.276 361.033 340.742C361.448 339.879 361.867 339.013 362.234 338.15C362.234 338.15 362.51 337.431 362.557 337.336C362.696 337.002 362.786 336.664 362.924 336.283C363.105 335.754 363.339 335.278 363.62 334.845C364.787 333.111 366.678 332.182 368.969 332.62C371.446 333.101 373.49 336.216 372.623 338.655Z" fill="#494949"/>
<path d="M342.922 389.072C327.584 379.436 324.035 361.673 314.865 347.277C303.647 329.719 282.202 332.42 265.259 339.865C248.644 347.211 234.687 360.229 226.594 376.501C216.738 396.274 215.176 419.306 210.198 440.532C206.211 457.552 201.023 474.3 194.788 490.639C193.507 494.135 192.125 497.584 190.701 501.037C190.244 502.233 189.739 503.481 189.229 504.681C187.757 508.182 184.132 507.901 181.912 505.934C181.769 505.791 181.574 505.653 181.479 505.462C180.174 504.052 179.521 502.014 180.445 499.856C191.354 473.876 199.194 446.843 204.453 419.182C208.516 397.637 212.722 375.992 226.37 358.119C237.821 343.086 254.374 331.787 272.642 326.709C290.624 321.679 309.606 323.208 321.372 339.137C326.669 346.349 329.856 355.637 334.076 363.959C335.696 367.031 337.406 369.961 339.445 372.6C341.727 375.615 344.389 378.245 347.705 380.336C353.183 383.727 348.357 392.516 342.922 389.072Z" fill="#494949"/>
<path d="M284.26 516.847C280.045 518.338 275.858 518.924 271.713 518.891C266.855 518.915 262.077 518.033 257.39 516.576H257.342C255.379 515.985 253.464 515.299 251.55 514.566C251.502 514.566 251.454 514.518 251.407 514.518C249.058 513.598 246.758 512.632 244.452 511.526C242.104 510.464 239.75 509.354 237.45 508.201C237.45 508.201 237.45 508.201 237.402 508.201C236.059 507.554 234.763 506.906 233.467 506.258C221.23 500.199 203.648 493.692 192.078 503.581C191.039 504.405 190.058 505.372 189.12 506.53C186.919 509.23 183.861 508.416 182.113 506.349C181.87 506.067 181.627 505.786 181.479 505.453C180.503 503.752 180.326 501.466 181.917 499.537C185.476 495.197 189.91 492.32 194.793 490.629C204.601 487.152 216.248 488.409 225.97 492.025C242.161 498.074 259.081 511.498 277.039 508.182C270.084 476.034 265.649 443.371 263.973 410.522C263.639 404.048 273.643 403.948 273.976 410.374C275.667 444.123 280.259 477.692 287.747 510.693C288.404 513.456 286.913 515.904 284.26 516.847Z" fill="#494949"/>
<path d="M251.402 514.522C251.259 514.623 251.121 514.765 250.978 514.861L250.93 514.908C250.506 515.199 249.939 515.447 249.32 515.647C236.368 519.41 222.764 520.658 209.355 519.143C199.666 518.047 186.633 516.142 182.108 506.348C182.012 506.205 181.96 506.063 181.912 505.924C181.617 505.358 181.417 504.738 181.217 504.076C179.412 498.05 188.567 495.345 190.701 501.032C190.749 501.128 190.801 501.271 190.849 501.409C191.101 502.214 191.539 502.971 192.073 503.581C193.673 505.415 196.355 506.425 198.651 507.058C203.534 508.511 208.735 509.197 213.789 509.549C221.754 510.097 229.657 509.649 237.397 508.201C237.445 508.201 237.445 508.201 237.445 508.201C240.389 507.634 243.285 506.972 246.181 506.167C246.324 506.12 246.514 506.067 246.657 506.015C252.016 504.414 254.741 511.426 251.402 514.522Z" fill="#494949"/>
<path d="M251.545 514.57C251.359 514.718 251.168 514.813 250.978 514.865L250.93 514.913C250.411 515.113 249.839 515.213 249.173 515.223C246.457 515.261 244.862 513.522 244.447 511.531C243.942 509.587 244.528 507.339 246.176 506.172C246.881 505.591 247.877 505.243 249.02 505.224C254.551 505.138 255.422 512.465 251.545 514.57Z" fill="#494949"/>
<path d="M333.196 568.817C331.581 569.031 329.999 568.531 328.98 567.211C328.589 566.692 328.294 566.078 328.094 565.32C325.202 553.359 314.204 547.471 303.238 543.537C300.509 542.527 297.827 541.665 295.245 540.845C294.478 540.617 293.759 540.393 292.997 540.117C279.497 535.791 265.745 530.418 257.938 517.814C257.695 517.39 257.495 517.009 257.395 516.585H257.347C255.799 511.655 263.411 507.73 266.579 512.779C268.041 515.137 269.789 517.162 271.718 518.895C280.845 527.193 294.554 529.799 305.858 533.829C313.184 536.434 320.625 540.04 326.555 545.099C330.895 548.753 334.391 553.226 336.473 558.675C336.968 559.956 337.368 561.281 337.721 562.657C338.583 566.116 335.954 568.535 333.196 568.817Z" fill="#494949"/>
<path d="M301.547 395.388C300.337 391.135 299.127 386.881 297.922 382.622C297.207 380.103 294.34 378.302 291.758 379.14C289.19 379.974 287.513 382.613 288.276 385.304C289.486 389.558 290.691 393.812 291.901 398.07C292.615 400.59 295.483 402.391 298.065 401.552C300.632 400.714 302.309 398.08 301.547 395.388Z" fill="#494949"/>
<path d="M306.968 416.257C305.281 410.026 295.645 412.718 297.326 418.939C310.383 467.273 321.41 516.132 330.37 565.396C331.523 571.746 341.16 569.002 340.012 562.714C331.052 513.45 320.029 464.592 306.968 416.257Z" fill="#494949"/>
<path d="M339.731 563.244C339.65 564.339 339.521 565.344 339.35 566.345V566.392C337.63 575.943 331.023 583.188 323.392 589.209C315.761 595.183 305.505 600.718 302.462 610.573C302.462 610.621 302.414 610.716 302.371 610.764C300.632 615.742 292.101 615.299 292.587 609.478C292.625 609.001 292.668 608.525 292.711 608.049C294.473 585.441 294.569 562.762 292.992 540.112C292.925 538.921 292.816 537.735 292.749 536.544C292.273 530.118 302.276 530.018 302.752 536.397C302.928 538.774 303.109 541.155 303.238 543.537C304.238 559.766 304.338 575.962 303.672 592.172C306.306 589.752 309.126 587.423 312.05 585.236C318.319 580.616 326.527 575.066 328.98 567.216C329.389 565.973 329.609 564.73 329.685 563.396C329.728 563.062 329.771 562.729 329.813 562.443V562.396C330.623 559.285 333.896 558.047 336.473 558.675C338.388 559.166 339.883 560.666 339.731 563.244Z" fill="#494949"/>
<path d="M355.755 661.095C354.788 660.013 353.721 658.932 352.611 657.951C344.118 650.453 333.477 646.133 324.236 639.692C314.08 632.6 306.496 622.425 302.371 610.764C302.176 610.292 301.976 609.816 301.823 609.297C300.328 604.838 294.664 605.114 292.706 608.049C291.911 609.059 291.644 610.397 292.192 612.012C295.631 622.444 301.204 631.933 308.945 639.826C314.894 645.885 322.006 650.21 329.266 654.435C335.453 676.638 340.122 699.198 342.889 722.072C342.994 722.786 343.051 723.448 343.156 724.163C343.699 728.774 350.025 731.303 352.573 726.502C352.621 726.406 352.669 726.359 352.712 726.264C358.875 714.55 364.982 702.356 365.544 688.866L365.535 688.294C365.582 688.294 365.582 688.246 365.535 688.199C365.821 678.048 362.438 668.526 355.755 661.095ZM350.863 707.281C348.543 692.071 345.414 677.014 341.622 662.114C348.991 667.53 354.712 674.308 355.479 684.302C356.075 692.343 353.95 699.95 350.863 707.281Z" fill="#494949"/>
<path d="M448.662 768.249C447.552 764.214 444.746 761.256 441.288 759.117C439.363 757.907 437.253 756.983 435.1 756.302C427.393 753.796 418.68 754.115 410.673 753.996C401.665 753.796 392.519 753.882 383.588 752.158C370.207 749.495 354.745 740.959 352.716 726.268C352.563 725.649 352.506 725.034 352.449 724.415C352.082 718.942 344.785 718.194 342.889 722.081C342.565 722.753 342.389 723.615 342.451 724.563C343.332 739.082 353.411 750.462 366.082 756.802C375.104 761.289 384.893 762.814 394.763 763.476C394.815 763.761 394.725 764.047 394.825 764.381C399.083 781.705 401.298 799.397 401.513 817.255C401.537 818.827 402.318 820.104 403.475 820.99C405.79 822.766 409.506 822.757 410.935 819.594C411.44 818.441 411.997 817.293 412.597 816.141C415.651 809.996 419.571 804.318 424.354 799.292C429.798 793.638 436.553 789.965 442.436 784.83C445.213 782.406 447.452 779.371 448.452 776.023C448.5 776.023 448.5 775.975 448.5 775.975C449.267 773.527 449.419 770.95 448.662 768.249ZM431.975 780.262C423.677 786.007 416.532 792.733 410.697 800.583C409.706 788.212 407.762 775.951 404.914 763.842C408.105 763.938 411.254 763.985 414.398 764.038C421.262 764.224 429.779 763.714 435.934 767.482C442.807 771.764 436.41 777.194 431.975 780.262Z" fill="#494949"/>
<path d="M539.868 937.404C539.868 937.452 539.868 937.452 539.82 937.452C538.462 938.995 536.328 939.838 533.98 938.776C533.885 938.776 533.837 938.728 533.742 938.685C533.213 938.409 532.684 938.128 532.156 937.852C527.163 935.303 522.171 932.664 517.365 929.735C514.05 927.734 510.872 925.591 507.886 923.252C502.246 918.855 497.216 913.787 493.267 907.604C489.17 901.235 486.826 894.076 486.283 886.506C485.917 881.033 486.079 875.931 484.869 871.235C484.711 870.43 484.464 869.572 484.168 868.815C483.13 866.114 481.52 863.613 479.005 861.222C466.205 849.261 446.88 850.499 431.132 845.35C419.119 841.43 407.229 833.365 403.475 820.985C403.028 819.656 402.718 818.232 402.508 816.76C401.608 810.486 411.235 807.723 412.14 814.092C412.245 814.807 412.35 815.469 412.597 816.136C416.113 831.565 433.571 836.357 447.475 838.962C460.423 841.487 474.227 843.95 484.454 852.71C485.416 853.505 486.336 854.348 487.207 855.291C490.351 858.531 492.695 862.213 494.134 866.338C494.877 868.234 495.334 870.177 495.648 872.221C497.025 881.538 495.439 890.422 499.907 899.168C506.528 912.029 519.127 919.798 531.703 926.329C533.913 927.534 536.119 928.644 538.329 929.759C538.424 929.806 538.472 929.849 538.567 929.897C540.153 930.73 540.935 932.007 541.097 933.336C541.306 934.76 540.758 936.247 539.868 937.404Z" fill="#494949"/>
<path d="M363.382 458.585C360.676 458.742 358.413 460.867 358.451 463.663L358.728 482.264C358.766 484.884 361.105 487.347 363.806 487.195C366.511 487.037 368.779 484.913 368.736 482.117L368.459 463.515C368.421 460.891 366.082 458.428 363.382 458.585Z" fill="#494949"/>
<path d="M356.846 503.852C356.431 565.13 356.012 626.407 355.598 687.684C355.555 694.138 365.558 693.981 365.606 687.536C366.02 626.259 366.435 564.982 366.854 503.705C366.892 497.255 356.889 497.412 356.846 503.852Z" fill="#494949"/>
<path d="M447.219 549.267L440.897 771.959C440.716 778.409 450.72 778.242 450.905 771.812L457.227 549.12C457.408 542.67 447.4 542.837 447.219 549.267Z" fill="#494949"/>
<path d="M497.764 677.219C497.778 674.603 496.111 671.912 493.248 671.769C490.737 671.641 487.813 673.489 487.798 676.28C487.76 683.459 487.717 690.637 487.679 697.821C487.665 700.436 489.327 703.127 492.19 703.27C494.701 703.399 497.625 701.55 497.64 698.759C497.683 691.576 497.721 684.397 497.764 677.219Z" fill="#494949"/>
<path d="M497.073 720.175C496.077 768.877 495.082 817.626 494.134 866.328C494.101 867.328 494.115 868.329 494.081 869.329C494.02 874.712 487.16 874.959 484.869 871.229C484.431 870.567 484.178 869.762 484.169 868.81C484.121 868.667 484.116 868.571 484.116 868.429C484.231 863.189 484.345 857.944 484.455 852.704C485.321 808.195 486.236 763.685 487.103 719.227C487.194 712.749 497.168 713.745 497.073 720.175Z" fill="#494949"/>
<path d="M538.462 668.325C538.772 661.88 528.764 662.061 528.454 668.473C524.201 756.706 525.444 845.145 532.189 933.221C532.68 939.623 542.688 939.509 542.197 933.074C535.457 844.997 534.209 756.559 538.462 668.325Z" fill="#494949"/>
<path d="M537.681 610.04C534.856 610.202 532.856 612.321 532.751 615.117C532.532 620.943 532.313 626.769 532.089 632.595C531.989 635.219 534.566 637.672 537.167 637.525C539.991 637.363 541.992 635.248 542.097 632.447C542.316 626.621 542.535 620.795 542.759 614.97C542.854 612.345 540.282 609.887 537.681 610.04Z" fill="#494949"/>
<path d="M534.871 963.679C527.321 971.649 516.489 976.907 512.116 987.454C510.182 992.008 502.293 989.978 502.694 985.115C504.437 964.508 506.133 943.854 507.876 923.247C507.914 922.628 508 922.009 508.038 921.389C508.238 918.669 510.015 916.359 512.964 916.316C515.441 916.278 518.237 918.574 518.037 921.242C517.794 924.057 517.551 926.92 517.351 929.73C516.208 942.753 515.117 955.729 514.069 968.795C517.032 966.133 520.137 963.56 523.148 960.945C527.949 956.872 533.808 950.642 533.904 944.016C533.932 942.825 533.775 941.682 533.327 940.5C533.08 939.695 532.732 938.843 532.241 938.038C532.194 937.99 532.146 937.895 532.141 937.847C531.165 936.147 531.331 934.522 532.17 933.274V933.227C533.285 931.402 535.604 930.268 537.757 930.764C538.953 930.983 540.106 931.683 540.887 933.003C540.935 933.098 541.035 933.241 541.082 933.331C541.425 933.898 541.716 934.417 541.964 934.984V935.032C542.902 937.114 543.455 939.248 543.678 941.391C544.522 949.432 540.501 957.735 534.871 963.679Z" fill="#494949"/>
<path d="M722.556 710.94C722.18 711.325 721.804 711.711 721.432 712.145C715.668 718.518 712.782 726.325 710.662 734.6C710.166 736.51 709.719 738.425 709.319 740.382C707.223 750.038 705.56 759.97 701.349 768.558C691.27 789.241 667.876 795.586 648.175 803.503C630.035 810.777 611.058 822.347 608.247 841.92C608.162 842.492 608.076 843.116 608.038 843.735C607.838 846.217 607.876 848.837 608.2 851.595C609.457 862.484 611.81 873.312 605.475 883.172C600.769 890.484 593.219 895.214 585.802 899.373C576.589 904.512 567.801 909.452 560.241 916.95C553.201 924.057 547.747 932.283 543.688 941.396C543.274 942.353 542.859 943.316 542.445 944.321C540.697 948.632 535.628 947.326 533.913 944.016C533.328 942.977 533.07 941.786 533.337 940.5C533.428 940.215 533.518 939.876 533.656 939.543C533.747 939.305 533.885 939.014 533.98 938.776C534.209 938.247 534.395 937.723 534.671 937.194C535.59 934.989 536.61 932.879 537.767 930.764C537.953 930.426 538.139 930.092 538.324 929.754C539.296 927.882 540.416 926.1 541.53 924.324C545.069 918.889 549.142 913.825 553.791 909.281C561.961 901.297 571.554 895.919 581.477 890.341C590.17 885.449 599.325 879.499 599.878 868.539C600.445 858.621 597.068 849.285 598.258 839.501V839.453C598.473 837.781 598.782 836.109 599.278 834.437C601.183 828.025 604.341 822.547 608.371 817.77C617.779 806.533 631.917 799.273 645.464 793.829C656.501 789.427 668.119 785.826 678.218 779.433C687.845 773.384 693.104 764.733 696.186 754.063C697.953 747.937 699.191 741.535 700.625 735.228C702.869 725.716 705.636 716.384 711.519 708.534C712.639 706.943 713.906 705.447 715.359 703.999C715.968 703.37 716.63 702.98 717.293 702.78C721.651 701.236 726.5 707.024 722.556 710.94Z" fill="#494949"/>
<path d="M711.514 708.529C711.262 717.251 711.009 725.925 710.662 734.599C710.628 735.504 710.595 736.362 710.557 737.267C710.48 738.553 710.066 739.61 709.318 740.382C706.646 743.469 700.349 742.564 700.558 737.415C700.596 736.7 700.63 735.938 700.62 735.223C703.245 667.773 703.535 600.265 701.63 532.786C701.439 526.355 711.443 526.207 711.633 532.638C713.31 591.262 713.272 649.957 711.514 708.529Z" fill="#494949"/>
<path d="M608.443 800.235C608.433 806.047 608.376 811.91 608.366 817.77C608.295 825.82 608.271 833.875 608.247 841.925L608.252 842.354C608.257 842.83 608.171 843.306 608.033 843.74C606.675 848.761 598.192 848.413 598.249 842.501C598.234 841.501 598.268 840.501 598.253 839.5V839.453C598.296 826.401 598.344 813.392 598.439 800.383C598.487 793.905 608.49 793.757 608.443 800.235Z" fill="#494949"/>
<path d="M598.792 541.493C598.511 535.063 588.503 535.191 588.784 541.641C591.337 599.884 597.082 715.86 599.635 774.103C599.916 780.534 609.924 780.405 609.643 773.955C607.09 715.712 601.345 599.736 598.792 541.493Z" fill="#494949"/>
<path d="M487.16 272.91C474.651 267.708 464.148 279.412 461.208 291.473C459.465 298.628 459.027 306.44 458.874 313.804C458.712 321.526 459.36 329.476 461.866 336.774C465.572 347.582 476.923 363.854 489.356 355.966C510.558 342.504 511.12 282.88 487.16 272.91Z" fill="#494949"/>
<path d="M580.781 360.429C591.342 360.977 598.939 353.279 602.35 345.505C610.477 326.985 610.696 306.026 604.136 287.477C601.502 280.027 597.72 270.6 588.684 267.247C579.257 263.75 571.249 270.124 567.462 277.126C558.907 292.926 548.942 358.786 580.781 360.429Z" fill="#494949"/>
<path d="M411.163 247.221C408.715 246.73 406.243 248.088 405.614 250.575C403.904 257.329 402.832 264.222 402.294 271.172C402.108 273.572 404.628 275.821 406.948 275.687C409.615 275.535 411.263 273.596 411.464 271.038C411.53 270.171 411.606 269.309 411.692 268.442C411.73 268.075 411.759 267.699 411.807 267.332C411.659 268.399 411.83 267.156 411.845 267.018C412.04 265.417 412.269 263.822 412.535 262.231C413.064 259.049 413.731 255.895 414.522 252.77C415.108 250.441 413.579 247.707 411.163 247.221Z" fill="#494949"/>
<path d="M459.699 151.509C435.024 172.163 417.633 200.882 410.578 232.264C409.287 238.008 418.18 240.238 419.481 234.46C426.216 204.502 442.741 177.598 466.277 157.896C470.798 154.109 464.186 147.755 459.699 151.509Z" fill="#494949"/>
<path d="M543.45 413.571C542.054 412.004 539.453 411.904 537.72 412.88C536.148 413.766 535.047 415.243 534.471 416.905C534.166 417.21 533.842 417.505 533.637 417.92C530.446 424.279 531.713 432.477 537.043 437.321C538.849 438.965 542.069 439.246 543.779 437.221C549.561 430.386 549.414 420.24 543.45 413.571Z" fill="#494949"/>
</svg>
