<svg width="342" height="200" viewBox="0 0 342 200" fill="none" xmlns="http://www.w3.org/2000/svg">
<path d="M45.6462 150.5V128.417H0.229574L36.8962 56.75H55.6462L26.2712 113.417H46.0629V94.6667L62.7296 85.7083V113.417H73.7712V128.417H63.1462V150.5H45.6462Z" fill="#424242"/>
<path d="M103.776 92.9347C102.055 93.2565 100.3 93.3571 98.53 93.2343C97.4069 93.156 96.2499 93.0035 95.166 92.6807C94.6557 92.5399 94.0598 92.3155 93.7041 91.9079C96.2764 89.7104 100.182 91.1564 102.902 92.5028C103.19 92.6468 103.478 92.7908 103.776 92.9347Z" fill="#C2CAC2"/>
<path d="M250.963 72.8689C251.012 72.5609 250.944 72.2867 250.814 72.0771C250.789 71.8548 250.712 71.6336 250.54 71.425C247.274 67.5243 244.584 63.1493 242.588 58.479C241.579 56.1227 240.781 53.6785 240.119 51.2004C239.503 48.9013 238.939 46.5598 237.827 44.4374C233.807 36.7682 222.87 36.6443 217.769 43.2095C215.577 46.0157 214.525 49.313 213.939 52.73C212.728 53.2032 211.364 53.2339 210.108 52.8602C208.896 52.4971 207.772 51.645 207.08 50.6394C206.95 50.451 206.778 50.3049 206.587 50.2128C204.795 43.6011 203.773 36.7354 202.118 30.111C199.745 20.6814 195.715 10.8422 187.624 4.91756C179.255 -1.21567 168.032 -1.22942 158.776 2.83434C149.099 7.08441 142.137 15.9 138.011 25.4047C134.018 34.5897 132.534 44.4776 131.822 54.4078C131.76 54.5042 131.709 54.6111 131.668 54.7275C131.637 54.8122 131.617 54.8873 131.586 54.9614C131.576 54.9826 131.514 55.1425 131.514 55.1425C131.433 55.3341 131.34 55.5256 131.248 55.7183C131.073 56.0592 130.888 56.4011 130.68 56.7218C130.566 56.8933 130.453 57.0743 130.328 57.2458C130.307 57.2775 130.307 57.267 130.297 57.2881C130.286 57.2987 130.286 57.2987 130.256 57.3421C130.193 57.4173 130.131 57.503 130.058 57.5888C129.808 57.9 129.537 58.189 129.245 58.4684C129.109 58.6081 128.974 58.7373 128.827 58.8664C128.743 58.931 128.67 59.0062 128.586 59.0707C128.576 59.0813 128.503 59.1353 128.462 59.1787C128.158 59.4158 127.833 59.6328 127.508 59.8382C127.162 60.0446 126.815 60.2404 126.447 60.4151C126.373 60.4479 126.3 60.4807 126.215 60.5135C126.205 60.5241 126.068 60.5792 126.036 60.5897C125.847 60.667 125.647 60.7326 125.447 60.7993C125.383 60.8216 125.321 60.8438 125.257 60.8766C124.319 59.0273 123.611 56.9632 122.434 55.3605C119.82 51.8207 115.601 51.4809 111.605 52.5988C107.546 53.7282 103.867 56.2381 101.322 59.5788C98.2897 63.5516 97.355 68.3605 96.4521 73.1483C95.2835 79.2953 93.54 85.3026 91.117 91.0759C90.9127 91.5554 91.0567 92.0085 91.3467 92.3218C91.3795 92.3959 91.4335 92.4584 91.4875 92.5208C92.4942 94.6972 95.3904 95.1206 97.5424 95.3641C100.522 95.7007 103.545 95.4234 106.424 94.5871C106.56 94.5427 106.687 94.4876 106.781 94.423L106.792 94.4124C106.834 94.4008 106.877 94.3796 106.918 94.3468C107.343 94.5098 107.77 94.6623 108.205 94.7935H108.216C108.238 94.8888 108.282 94.9724 108.336 95.0666C110.071 97.8675 113.127 99.0616 116.127 100.023C116.477 105.057 116.457 110.096 116.065 115.12C115.888 115.344 115.829 115.642 115.951 116C116.715 118.319 117.953 120.427 119.673 122.181C120.996 123.528 122.576 124.489 124.189 125.428C125.564 130.362 126.602 135.375 127.217 140.458C127.145 140.607 127.106 140.799 127.119 141.01C127.315 144.236 129.555 146.765 132.371 148.174C134.376 149.171 136.551 149.51 138.744 149.657C138.756 149.72 138.736 149.784 138.758 149.858C139.704 153.708 140.197 157.639 140.244 161.608C140.249 161.957 140.423 162.241 140.68 162.438C141.514 165.189 144.157 166.981 146.826 167.852C150.326 168.997 154.62 168.721 157.465 171.379C158.023 171.911 158.38 172.467 158.612 173.067C158.615 173.278 158.67 173.457 158.768 173.604C159.038 174.648 159.001 175.782 159.082 176.998C159.202 178.68 159.724 180.271 160.634 181.686C161.511 183.06 162.629 184.187 163.883 185.164C163.495 189.743 163.118 194.333 162.731 198.912C162.641 199.993 164.395 200.444 164.825 199.432C165.795 197.088 168.203 195.92 169.881 194.149C171.133 192.828 172.026 190.984 171.841 189.197C172.743 187.172 173.954 185.344 175.519 183.764C177.199 182.098 179.152 181.001 181.199 179.858C182.848 178.934 184.526 177.882 185.571 176.258C186.979 174.067 186.456 171.661 186.177 169.241C186.105 168.628 186.095 168.046 186.141 167.495C186.171 167.399 186.19 167.292 186.189 167.187L186.188 167.091C186.812 162.742 191.03 160.17 195.061 158.554C199.439 156.796 204.638 155.385 206.878 150.789C207.812 148.88 208.183 146.672 208.649 144.527C208.816 144.356 208.907 144.121 208.924 143.835C208.931 143.634 208.94 143.443 208.947 143.242C209.417 141.403 210.059 139.669 211.34 138.252C211.551 138.196 211.75 138.066 211.917 137.863C216.2 132.549 213.07 125.608 213.532 119.556C213.789 116.217 215.513 113.916 218.25 112.129C220.588 110.581 223.131 109.337 225.059 107.255C225.07 107.234 225.09 107.222 225.101 107.201C225.33 107.018 225.485 106.73 225.501 106.358C225.632 103.064 225.763 99.7698 225.905 96.4745C226.02 96.43 226.137 96.3866 226.252 96.3422C230.519 94.9661 235.874 95.5229 238.885 91.5501C239.062 91.3151 239.163 91.0484 239.17 90.7838C239.442 90.5255 239.573 90.1105 239.493 89.6882C239.011 87.2069 238.53 84.7373 238.049 82.2561C238.396 82.1238 238.743 81.9809 239.081 81.8708C243.757 80.301 250.106 78.6623 250.963 72.8689ZM221.92 100.548C222.093 99.413 222.757 98.4815 223.625 97.7702C223.539 99.846 223.453 101.923 223.368 104.009C222.433 103.049 221.717 101.916 221.92 100.548ZM232.322 87.3625C232.311 87.3413 232.301 87.3308 232.289 87.3096V87.299C232.309 87.2461 232.319 87.1932 232.319 87.1286C232.328 87.0333 232.326 86.938 232.336 86.8428C232.336 86.8322 232.336 86.8322 232.336 86.8216C232.457 86.4702 232.717 86.0753 232.819 85.9144C233.585 84.7172 234.716 83.864 235.965 83.1897C236.32 84.9628 236.664 86.7475 237.007 88.5206C235.955 88.2718 234.904 88.0326 233.852 87.7838C233.502 87.7044 232.517 87.6875 232.322 87.3625ZM142.287 157.907C142.067 155.158 141.635 152.434 141.002 149.743C141.711 149.764 142.411 149.774 143.11 149.786C144.635 149.827 146.528 149.714 147.895 150.551C149.423 151.503 148.001 152.71 147.016 153.392C145.172 154.667 143.585 156.163 142.287 157.907ZM123.931 105.627C123.975 105.795 124.041 105.932 124.128 106.047C123.582 107.791 121.758 109.025 120.366 110.051C119.717 110.537 119.089 111.055 118.504 111.593C118.652 107.992 118.631 104.391 118.407 100.785C120.844 101.659 123.287 102.968 123.931 105.627ZM98.53 93.2343C97.4069 93.156 96.2499 93.0035 95.166 92.6807C94.6557 92.5399 94.0598 92.3155 93.7041 91.9079C96.2764 89.7104 100.182 91.1564 102.902 92.5028C103.19 92.6468 103.478 92.7908 103.776 92.9347C102.056 93.2565 100.3 93.356 98.53 93.2343ZM126.937 127.136C128.575 128.34 129.846 129.846 130.017 132.067C130.149 133.854 129.677 135.544 128.991 137.175C128.475 133.794 127.78 130.449 126.937 127.136ZM167.28 193.543C166.611 194.124 165.92 194.696 165.262 195.288C165.494 192.383 165.737 189.501 165.991 186.607C167.059 187.258 168.17 187.845 169.278 188.41C169.278 188.421 169.29 188.442 169.3 188.453C169.409 188.631 169.486 188.82 169.542 189C169.482 189.287 169.539 189.55 169.67 189.781C169.649 191.254 168.345 192.638 167.28 193.543Z" fill="#FFFDFE"/>
<path d="M176.044 2.11665C182.6 4.36606 187.232 10.0685 189.983 16.2303C193.366 23.8073 194.007 32.2863 195.151 40.4022C196.194 47.7909 197.669 55.3468 201.54 61.8378C203.406 64.9647 205.822 67.8567 208.885 69.869C211.374 71.5034 215.209 72.8901 216.86 69.4276C217.644 67.7815 217.739 65.7809 217.927 63.9951C218.166 61.715 218.272 59.4243 218.396 57.1368C218.643 52.53 219.003 47.9221 220.629 43.563C221.046 42.4452 219.182 41.719 218.673 42.8009C216.922 46.5153 215.43 50.3409 214.183 54.2522C212.076 54.2395 209.821 54.0395 208.112 52.7258C206.454 51.4524 205.704 49.3586 205.12 47.432C203.596 42.3901 202.276 37.2805 200.845 32.2111C199.498 27.4435 198.051 22.6683 195.789 18.2426C193.651 14.0581 190.794 10.2653 187.429 6.9902C187.11 6.68004 186.743 6.64935 186.42 6.75944C183.736 3.77645 180.437 1.39472 176.551 0.0620053C175.264 -0.380468 174.762 1.67629 176.044 2.11665Z" fill="#E5E5E5"/>
<path d="M246.411 68.6665C245.081 67.1072 244.305 65.0992 243.521 63.2308C241.674 58.823 239.981 54.3517 238.422 49.8338C238.227 49.2654 237.721 49.0749 237.253 49.132C236.703 45.8505 235.866 42.5574 233.512 40.0814C232.572 39.0928 231.099 40.6139 232.037 41.6005C234.716 44.4173 235.166 48.8441 235.629 52.5257C236.172 56.8531 236.323 61.2302 236.072 65.584C235.97 67.3613 235.919 69.2264 235.367 70.9349C235.145 71.624 234.819 72.3682 234.258 72.8562C233.729 73.3167 233.087 73.3399 232.461 73.5792C232.364 70.2532 232.145 66.9305 231.781 63.6225C231.415 60.2934 230.984 57.0066 229.56 53.941C228.902 52.5226 227.084 53.2371 226.649 54.3655C225.333 57.7751 224.867 61.3868 224.38 64.987C224.28 65.7227 224.181 66.4583 224.081 67.194C223.886 67.4333 223.754 67.7413 223.727 68.1171C223.422 72.3079 222.634 76.4542 221.387 80.4672C220.761 82.4837 220.02 84.4611 219.156 86.3876C218.481 87.8918 217.773 89.4796 216.645 90.7054C216.308 91.0717 215.88 91.3437 215.434 91.5957C215.672 86.7052 215.783 81.8009 215.267 76.9644C215.053 74.9553 212.144 74.9362 212.091 77.011C211.841 86.9645 211.241 96.9043 210.316 106.817C210.278 106.357 210.241 105.899 210.199 105.44C209.887 101.95 209.575 98.4593 209.263 94.9693C209.146 93.663 207.937 93.2142 207.044 93.5921C206.208 93.609 205.317 94.2876 205.332 95.2095C205.454 102.436 205.576 109.663 205.696 116.891C205.732 119.046 205.768 121.202 205.805 123.357C205.504 124.832 205.107 126.292 204.566 127.729C203.762 129.866 202.523 132.233 200.378 133.279C198.459 134.215 196.247 133.764 194.459 132.747C190.053 130.24 188.925 124.721 188.013 120.147C186.68 113.453 185.607 106.703 185.369 99.8724C185.335 98.8933 184.587 98.3979 183.826 98.3682C183.145 97.1403 180.838 97.423 180.845 99.1706C180.891 111.667 180.938 124.163 180.985 136.659C181.018 145.777 181.33 155.042 180.743 164.196C180.082 164.367 179.37 164.37 178.771 164.185C177.12 163.673 175.927 162.162 175.268 160.622C174.332 158.436 174.298 155.956 174.215 153.62C174.127 151.161 174.046 148.702 173.961 146.243C173.61 136.056 173.258 125.867 172.907 115.68C172.88 114.902 172.402 114.427 171.825 114.251C171.05 113.383 169.099 113.764 168.961 115.337C167.584 130.992 166.723 146.688 166.365 162.398C165.171 161.187 164.996 157.859 164.83 156.776C164.357 153.679 163.959 150.572 163.625 147.457C162.967 141.3 162.579 135.117 162.441 128.926C162.432 128.532 162.305 128.216 162.109 127.977C162.109 127.974 162.109 127.969 162.109 127.966C162.092 126.224 159.213 125.775 158.979 127.61L157.501 139.153C155.938 137.523 155.927 134.339 155.741 132.313C155.416 128.754 155.123 125.193 154.861 121.629C154.329 114.414 153.929 107.19 153.652 99.9614C153.573 97.9194 150.398 97.9607 150.476 100.008C150.628 103.945 150.816 107.88 151.041 111.814C150.475 111.991 150.027 112.477 150.057 113.286C150.277 119.236 150.047 125.187 149.628 131.123C149.403 134.313 149.223 137.541 148.908 140.747C148.067 140.466 147.063 140.366 146.322 140.045C142.51 138.391 139.768 134.753 138.389 130.92C136.647 126.083 136.576 120.886 136.405 115.808C136.223 110.448 135.906 105.095 135.509 99.7475C135.288 96.755 135.055 93.7614 134.782 90.7732C134.529 87.9966 134.168 85.2285 133.14 82.6192C132.927 82.0772 132.429 81.8877 131.969 81.9322C131.529 81.4103 130.636 81.5045 130.235 82.11C129.756 82.832 129.049 83.9477 128.161 84.225C127.112 84.5531 126.367 83.7169 125.798 82.96C124.563 81.314 123.745 79.3419 123.001 77.4397C121.361 73.2468 119.791 69.0243 118.188 64.8165C117.995 64.3095 117.552 64.1052 117.12 64.1136C116.502 63.8448 115.657 64.1899 115.599 64.8885C115.188 65.0875 114.884 65.5035 115.023 66.073C117.718 77.0025 120.196 87.9828 122.475 99.0065C120.789 97.7479 119.226 96.3443 118.171 94.4791C116.826 92.1006 116.297 89.3568 115.797 86.6999C114.605 80.3624 113.442 74.0185 112.265 67.6778C112.131 66.9601 111.491 66.8034 110.958 67.0056C110.509 66.579 109.677 66.4912 109.246 67.1813C107.837 69.4403 106.793 71.9289 106.247 74.5393C105.725 77.0311 105.805 80.0755 103.923 82.0253C102.12 83.8937 99.4828 84.0948 97.154 84.8707C95.0517 85.5704 93.0563 87.191 93.2807 89.6215C93.3284 90.138 93.6099 90.462 94.0852 90.6334C96.9486 91.6666 99.812 92.7018 102.676 93.7329C105.159 94.6263 107.633 95.4371 110.27 95.6245C114.066 98.6985 118.596 100.46 123.148 102.112C123.158 102.145 123.18 102.163 123.193 102.193C123.25 102.895 123.312 103.596 123.365 104.299C122.846 106.182 122.132 107.996 121.178 109.714C120.569 110.809 119.883 111.864 119.109 112.849C118.634 113.455 118.035 114.026 117.79 114.761C117.258 115.017 116.906 115.678 117.294 116.243C120.003 120.193 123.375 123.551 127.327 126.257C127.472 126.356 127.617 126.398 127.76 126.411C127.811 126.566 127.868 126.715 127.912 126.874C128.004 127.203 128.233 127.406 128.502 127.516C129.863 133.521 126.892 140.539 131.347 145.734C135.413 150.476 142.068 148.306 147.305 150.195C146.436 153.103 145.049 155.77 142.639 157.827C142.259 158.152 141.966 158.497 141.727 158.852C141.188 159.117 140.792 159.673 140.821 160.296C140.964 163.306 143.533 165.457 146.149 166.516C148.27 167.375 150.557 167.686 152.802 167.388C155.742 169.087 158.14 171.665 159.456 174.877C159.715 175.511 160.275 175.862 160.85 175.945C161.173 177.941 161.766 179.889 162.802 181.747C164.058 184.001 165.955 185.997 168.339 187.053C169.393 187.52 170.701 187.856 171.75 187.168C172.794 186.483 172.863 185.43 172.741 184.36L176.781 181.174C177.369 180.711 177.97 180.254 178.569 179.795C179.751 179.312 180.797 178.696 181.568 177.701C182.924 177.038 183.976 175.888 184.587 174.391C185.64 171.806 185.022 169.006 184.358 166.406C184.304 166.196 184.213 166.018 184.096 165.869C184.436 165.566 184.743 165.219 185.015 164.836C185.107 164.768 185.195 164.69 185.279 164.594C188.499 160.861 192.564 158.044 197.223 156.414C199.589 155.586 201.924 154.759 203.682 152.882C205.271 151.187 206.268 149.049 206.992 146.865C207.779 144.493 208.25 142.04 208.543 139.558C208.804 139.265 209.082 138.983 209.323 138.678C211.202 136.302 212.128 133.617 212.219 130.591C212.315 127.353 211.567 124.123 212.037 120.892C212.352 118.73 213.002 116.643 213.555 114.533C213.568 114.525 213.583 114.523 213.594 114.514L222.176 108.247C222.979 107.66 223.295 106.498 222.477 105.738C219.903 103.347 220.677 100.099 221.186 96.9911C221.223 96.7646 221.267 96.5401 221.305 96.3136C221.535 96.3634 221.785 96.3687 222.05 96.2977C226.723 95.0412 231.34 93.59 235.891 91.945C237.02 91.5374 237.459 90.1772 236.572 89.2753C235.645 88.3332 234.402 88.1691 233.397 87.3996C232.638 86.8174 232.448 85.8223 232.392 84.8845C232.716 84.8538 233.04 84.6886 233.252 84.3795C235.397 81.2695 239.502 80.5084 242.755 79.0783C245.341 77.9415 249.351 75.5322 249.262 72.2105C249.216 70.4607 247.415 69.8425 246.411 68.6665Z" fill="#E5E5E5"/>
<path d="M169.669 189.781C169.648 191.254 168.346 192.638 167.279 193.543C166.61 194.124 165.919 194.696 165.261 195.288C165.493 192.383 165.736 189.501 165.99 186.607C167.058 187.258 168.169 187.845 169.277 188.41C169.277 188.421 169.289 188.442 169.299 188.453C169.408 188.631 169.485 188.82 169.541 189C169.481 189.287 169.539 189.55 169.669 189.781Z" fill="#C2CAC2"/>
<path d="M124.127 106.047C123.581 107.791 121.757 109.025 120.365 110.051C119.716 110.537 119.088 111.055 118.503 111.593C118.651 107.992 118.63 104.391 118.406 100.785C120.843 101.659 123.287 102.968 123.93 105.626C123.976 105.795 124.041 105.932 124.127 106.047Z" fill="#C2CAC2"/>
<path d="M237.008 88.5206C235.956 88.2718 234.905 88.0326 233.853 87.7838C233.502 87.7044 232.517 87.6875 232.322 87.3615C232.312 87.3403 232.301 87.3297 232.289 87.3085V87.298C232.309 87.245 232.319 87.1921 232.319 87.1275C232.328 87.0322 232.326 86.937 232.336 86.8417C232.336 86.8311 232.336 86.8311 232.336 86.8205C232.458 86.4691 232.717 86.0743 232.82 85.9134C233.585 84.7162 234.717 83.863 235.966 83.1887C236.32 84.9639 236.664 86.7475 237.008 88.5206Z" fill="#C2CAC2"/>
<path d="M223.625 97.7702C223.539 99.846 223.453 101.923 223.368 104.009C222.433 103.049 221.717 101.916 221.92 100.548C222.093 99.413 222.757 98.4815 223.625 97.7702Z" fill="#C2CAC2"/>
<path d="M130.017 132.067C130.149 133.854 129.677 135.544 128.991 137.175C128.475 133.795 127.78 130.449 126.937 127.137C128.575 128.34 129.846 129.846 130.017 132.067Z" fill="#C2CAC2"/>
<path d="M147.016 153.392C145.172 154.668 143.584 156.163 142.287 157.907C142.067 155.158 141.635 152.434 141.002 149.743C141.711 149.764 142.411 149.774 143.11 149.786C144.635 149.827 146.528 149.714 147.895 150.551C149.423 151.503 148.001 152.71 147.016 153.392Z" fill="#C2CAC2"/>
<path d="M209.822 64.2026C203.62 53.5589 202.769 41.1538 199.665 29.4907C197.278 20.5269 193.198 10.964 185.034 5.82368C176.367 0.382748 164.992 1.46141 156.418 6.54244C147.718 11.6997 141.848 20.7217 138.536 30.1078C134.583 41.2924 133.945 53.2752 133.483 65.0229C133.43 66.453 131.197 66.4858 131.26 65.0558C131.338 63.1281 131.415 61.1995 131.524 59.2613C131.595 57.6406 131.699 56.0295 131.822 54.4078C132.534 44.4776 134.018 34.5886 138.011 25.4047C142.137 15.9 149.1 7.08441 158.776 2.83435C168.032 -1.23048 179.255 -1.21566 187.624 4.91756C195.714 10.8433 199.745 20.6825 202.118 30.111C203.773 36.7354 204.796 43.6011 206.587 50.2128C206.956 51.5625 207.357 52.9015 207.8 54.2279C208.819 57.2723 210.09 60.2394 211.742 63.0731C212.459 64.3116 210.55 65.4411 209.822 64.2026Z" fill="#494949"/>
<path d="M216.057 53.4498C216.057 53.4498 216.047 53.4604 216.057 53.471C216.059 53.6086 216.04 53.7568 215.979 53.8849C215.908 54.1294 215.752 54.3327 215.522 54.4523C214.901 54.7582 214.259 54.9794 213.594 55.1266C212.275 55.4314 210.899 55.4103 209.58 55.0165C208.952 54.8249 208.356 54.5687 207.801 54.2279C206.764 53.6287 205.864 52.7851 205.16 51.7689C204.813 51.2766 205.068 50.5314 205.55 50.2488C205.886 50.0424 206.267 50.0583 206.588 50.2117C206.779 50.3038 206.951 50.4499 207.081 50.6383C207.773 51.644 208.897 52.4961 210.109 52.8592C211.364 53.2328 212.729 53.2021 213.94 52.729C214.098 52.6739 214.245 52.6083 214.392 52.5321C214.928 52.2706 215.586 52.3765 215.912 52.9227C216.01 53.0698 216.055 53.2699 216.057 53.4498Z" fill="#494949"/>
<path d="M250.814 72.0771C250.891 73.0182 249.739 73.9031 248.996 73.0139C248.91 72.9091 248.813 72.7948 248.726 72.69C245.59 68.9036 242.956 64.7509 240.952 60.2489C239.156 56.2105 238.257 51.9785 236.851 47.8067C235.535 43.9409 232.857 41.1326 228.669 40.6859C224.714 40.2677 221.089 42.1107 218.914 45.4038C217.299 47.8417 216.503 50.6055 216.058 53.4498C216.058 53.4498 216.048 53.4604 216.058 53.471C216.029 53.6086 216.01 53.7473 215.98 53.8849C215.721 55.6675 215.578 57.4691 215.435 59.239C215.329 60.6596 213.106 60.703 213.212 59.2719C213.319 57.9042 213.436 56.5165 213.595 55.1266C213.689 54.321 213.805 53.525 213.941 52.729C214.526 49.3109 215.578 46.0146 217.771 43.2084C222.872 36.6433 233.81 36.7682 237.829 44.4363C238.941 46.5587 239.504 48.9002 240.121 51.1994C240.783 53.6774 241.581 56.1216 242.59 58.4779C244.585 63.1493 247.276 67.5243 250.542 71.424C250.711 71.6336 250.788 71.8548 250.814 72.0771Z" fill="#494949"/>
<path d="M250.963 72.8689C251.012 72.5609 250.944 72.2867 250.814 72.0771C250.315 71.3118 248.97 71.226 248.806 72.329C248.787 72.4561 248.767 72.5736 248.726 72.69C248.163 75.3872 245.774 77.1063 243.322 78.1055C240.471 79.2805 237.387 79.8235 234.679 81.3563C233.975 81.7586 233.201 82.2889 232.48 82.9135C231.257 83.99 230.208 85.3608 230.103 86.8766C230.096 87.0672 230.098 87.2577 230.112 87.4588C230.112 87.4694 230.112 87.48 230.112 87.48L230.113 87.5224C230.274 89.1292 231.615 89.5537 232.974 89.8723C234.206 90.1507 235.438 90.4397 236.66 90.7181C237.16 90.8377 237.658 90.9468 238.158 91.0664C238.573 91.1659 238.931 91.0336 239.17 90.7869C239.442 90.5286 239.573 90.1137 239.493 89.6913C239.011 87.2101 238.53 84.7405 238.049 82.2593C238.396 82.1269 238.743 81.984 239.081 81.874C243.758 80.301 250.106 78.6623 250.963 72.8689ZM233.853 87.7838C233.502 87.7044 232.517 87.6875 232.322 87.3615C232.311 87.3403 232.301 87.3297 232.289 87.3085V87.298C232.245 87.1826 232.274 87.0227 232.336 86.8417C232.336 86.8311 232.336 86.8311 232.336 86.8205C232.458 86.4691 232.717 86.0743 232.82 85.9134C233.585 84.7162 234.716 83.863 235.966 83.1887C236.32 84.9617 236.664 86.7464 237.007 88.5195C235.956 88.2718 234.905 88.0336 233.853 87.7838Z" fill="#494949"/>
<path d="M230.825 58.0715C230.783 57.4914 230.32 56.9399 229.697 56.9759C229.124 57.0087 228.557 57.484 228.601 58.1043C228.737 59.9779 228.872 61.8526 229.008 63.7262C229.049 64.3063 229.512 64.8578 230.136 64.8218C230.709 64.789 231.276 64.3137 231.232 63.6934C231.096 61.8187 230.961 59.9451 230.825 58.0715Z" fill="#494949"/>
<path d="M232.479 82.9135C232.455 84.2155 232.411 85.5185 232.335 86.8216C232.335 86.8322 232.335 86.8322 232.335 86.8428C232.325 86.938 232.327 87.0333 232.318 87.1286C232.319 87.1921 232.309 87.245 232.288 87.299V87.3096C232.062 88.4454 230.337 88.5237 230.11 87.479C230.11 87.479 230.11 87.4684 230.11 87.4578C230.087 87.3731 230.075 87.2683 230.084 87.1614C230.094 87.0661 230.092 86.9709 230.101 86.8756C230.473 80.4544 230.25 74.0322 229.458 67.6598C229.278 66.2329 231.501 66.2212 231.681 67.627C232.317 72.6995 232.584 77.8091 232.479 82.9135Z" fill="#494949"/>
<path d="M238.861 89.9761C238.474 89.6003 237.658 89.5283 237.294 89.9994C237.097 90.2566 236.888 90.5032 236.659 90.7181C233.195 94.1679 227.076 92.7336 223.082 95.3969H223.071C221.299 96.5772 219.814 98.4942 219.676 100.677V100.688C219.657 100.857 219.66 101.016 219.663 101.185C219.737 103.365 221.149 105.038 222.725 106.423C223.015 106.683 223.315 106.933 223.614 107.172C224.085 107.557 224.699 107.527 225.097 107.203C225.327 107.02 225.482 106.732 225.497 106.36C225.629 103.066 225.76 99.7719 225.902 96.4766C226.017 96.4322 226.134 96.3888 226.249 96.3443C230.516 94.9682 235.871 95.525 238.882 91.5523C239.059 91.3173 239.16 91.0505 239.166 90.7859C239.196 90.5001 239.097 90.2153 238.861 89.9761ZM221.92 100.548C222.093 99.413 222.757 98.4815 223.625 97.7702C223.539 99.846 223.453 101.923 223.368 104.009C222.433 103.049 221.717 101.916 221.92 100.548Z" fill="#494949"/>
<path d="M225.147 69.9124C223.992 80.0903 222.162 90.1772 219.666 100.112C219.318 101.499 221.476 102.036 221.825 100.644C224.322 90.7097 226.152 80.6228 227.307 70.4438C227.466 69.0433 225.309 68.4907 225.147 69.9124Z" fill="#494949"/>
<path d="M225.098 107.203C225.088 107.224 225.067 107.235 225.057 107.257C223.129 109.339 220.586 110.584 218.247 112.131C215.511 113.918 213.787 116.221 213.53 119.558C213.068 125.61 216.198 132.551 211.915 137.865C211.749 138.068 211.55 138.198 211.338 138.254C210.422 138.533 209.307 137.585 210.034 136.686C210.17 136.514 210.294 136.343 210.418 136.172C214.026 130.952 210.511 123.785 211.525 117.905C211.544 117.746 211.573 117.597 211.603 117.438C211.969 115.739 212.742 114.298 213.804 113.065C214.584 112.122 215.535 111.304 216.594 110.579C218.638 109.172 220.887 108.08 222.726 106.423C223.009 106.175 223.29 105.906 223.551 105.616C224.509 104.574 225.972 106.152 225.098 107.203Z" fill="#494949"/>
<path d="M212.595 85.7916C212.202 96.3231 211.81 106.855 211.418 117.386C211.365 118.819 213.588 118.781 213.642 117.353C214.034 106.822 214.426 96.2903 214.819 85.7588C214.872 84.3255 212.648 84.3637 212.595 85.7916Z" fill="#494949"/>
<path d="M213.911 75.1702C213.299 75.2051 212.818 75.6772 212.815 76.2986L212.797 79.4774C212.794 80.0596 213.334 80.6069 213.926 80.573C214.537 80.5381 215.018 80.0659 215.021 79.4446L215.039 76.2658C215.042 75.6825 214.501 75.1363 213.911 75.1702Z" fill="#494949"/>
<path d="M133.826 55.2568C133.309 56.7356 132.523 58.0926 131.525 59.2613C130.183 60.8374 128.443 62.0696 126.453 62.7979C126.317 62.8529 126.179 62.8974 126.043 62.9418C125.453 63.1408 124.854 62.7269 124.676 62.168C124.51 61.662 124.809 61.1285 125.26 60.8787C125.324 60.8459 125.386 60.8237 125.45 60.8014C125.65 60.7348 125.85 60.6681 126.039 60.5919C126.071 60.5813 126.208 60.5262 126.218 60.5156C126.303 60.4828 126.376 60.45 126.45 60.4172C126.819 60.2425 127.165 60.0467 127.511 59.8403C127.836 59.6339 128.161 59.4179 128.465 59.1808C128.506 59.1385 128.58 59.0834 128.59 59.0728C128.673 59.0083 128.746 58.9331 128.83 58.8685C128.976 58.7394 129.112 58.6103 129.248 58.4705C129.54 58.1911 129.811 57.901 130.061 57.5909C130.134 57.5051 130.196 57.4194 130.259 57.3442C130.29 57.3019 130.29 57.3019 130.3 57.2902C130.311 57.2691 130.311 57.2797 130.331 57.2479C130.456 57.0764 130.569 56.8954 130.683 56.7239C130.891 56.4032 131.076 56.0613 131.251 55.7204C131.343 55.5288 131.436 55.3362 131.517 55.1446C131.517 55.1446 131.579 54.9847 131.589 54.9636C131.62 54.8895 131.64 54.8143 131.671 54.7296C131.711 54.6121 131.763 54.5063 131.826 54.4099C132.085 54.0246 132.505 53.8182 133.014 53.9156C133.565 54.0225 134.019 54.7148 133.826 55.2568Z" fill="#494949"/>
<path d="M127.226 66.4605C123.818 64.319 123.029 60.3717 120.991 57.1728C118.498 53.2709 113.733 53.8711 109.968 55.5257C106.275 57.1579 103.174 60.0509 101.375 63.6669C99.1852 68.061 98.838 73.179 97.7319 77.8959C96.8459 81.6781 95.6931 85.4 94.3075 89.0308C94.0227 89.8078 93.7157 90.5742 93.3992 91.3416C93.2976 91.6073 93.1854 91.8846 93.0721 92.1514C92.745 92.9294 91.9395 92.867 91.4462 92.4298C91.4144 92.398 91.3711 92.3673 91.3499 92.325C91.0598 92.0117 90.9148 91.5586 91.1202 91.0791C93.5442 85.3058 95.2866 79.2985 96.4553 73.1515C97.3582 68.3637 98.2929 63.5537 101.326 59.582C103.87 56.2412 107.549 53.7304 111.608 52.6019C115.604 51.4841 119.823 51.8239 122.437 55.3637C123.614 56.9663 124.323 59.0305 125.26 60.8798C125.62 61.5625 126 62.2136 126.453 62.8C126.96 63.47 127.552 64.0544 128.289 64.5191C129.506 65.2728 128.434 67.2258 127.226 66.4605Z" fill="#494949"/>
<path d="M114.19 94.8549C113.253 95.1863 112.323 95.3165 111.402 95.309C110.322 95.3143 109.261 95.1185 108.219 94.7946H108.208C107.772 94.6633 107.347 94.5109 106.921 94.3479C106.911 94.3479 106.9 94.3373 106.889 94.3373C106.368 94.133 105.856 93.9181 105.344 93.6725C104.822 93.4365 104.299 93.1898 103.788 92.9337C103.788 92.9337 103.788 92.9337 103.777 92.9337C103.479 92.7897 103.191 92.6457 102.903 92.5018C100.183 91.1553 96.2764 89.7093 93.7052 91.9069C93.4744 92.09 93.2564 92.3049 93.0478 92.5621C92.5588 93.1623 91.8792 92.9813 91.4907 92.5219C91.4367 92.4594 91.3827 92.397 91.3499 92.3229C91.1329 91.945 91.0937 91.4369 91.4473 91.0082C92.238 90.0438 93.2235 89.4045 94.3085 89.0287C96.4881 88.2559 99.0762 88.5354 101.237 89.3388C104.835 90.6832 108.595 93.6662 112.585 92.9294C111.04 85.7853 110.054 78.5268 109.682 71.2271C109.608 69.7885 111.831 69.7663 111.905 71.1943C112.281 78.6941 113.301 86.1537 114.965 93.4873C115.111 94.1012 114.78 94.6453 114.19 94.8549Z" fill="#494949"/>
<path d="M106.888 94.3384C106.857 94.3606 106.826 94.3923 106.794 94.4135L106.784 94.4241C106.689 94.4887 106.563 94.5437 106.426 94.5882C103.548 95.4244 100.524 95.7018 97.5445 95.3652C95.3914 95.1217 92.4952 94.6983 91.4896 92.5219C91.4685 92.4901 91.4568 92.4584 91.4462 92.4277C91.3806 92.3017 91.3361 92.1641 91.2917 92.017C90.8905 90.6779 92.925 90.0766 93.3992 91.3406C93.4098 91.3617 93.4215 91.3935 93.4321 91.4242C93.4882 91.6031 93.5856 91.7714 93.7041 91.9069C94.0598 92.3144 94.6557 92.5388 95.166 92.6796C96.251 93.0025 97.4069 93.1549 98.53 93.2332C100.3 93.355 102.056 93.2555 103.776 92.9337C103.787 92.9337 103.787 92.9337 103.787 92.9337C104.441 92.8077 105.085 92.6606 105.728 92.4817C105.76 92.4711 105.802 92.4594 105.834 92.4478C107.025 92.0921 107.63 93.6503 106.888 94.3384Z" fill="#494949"/>
<path d="M106.92 94.3489C106.879 94.3818 106.836 94.4029 106.794 94.4146L106.783 94.4252C106.668 94.4696 106.541 94.4919 106.393 94.494C105.789 94.5024 105.435 94.1161 105.343 93.6736C105.231 93.2417 105.361 92.7421 105.727 92.4827C105.884 92.3536 106.105 92.2763 106.359 92.2721C107.588 92.253 107.782 93.8811 106.92 94.3489Z" fill="#494949"/>
<path d="M125.065 106.404C124.706 106.451 124.354 106.34 124.128 106.047C124.041 105.932 123.975 105.795 123.931 105.627C123.288 102.969 120.844 101.66 118.407 100.786C117.801 100.562 117.205 100.37 116.631 100.188C116.461 100.137 116.301 100.087 116.132 100.026C113.132 99.0648 110.076 97.8707 108.341 95.0698C108.287 94.9756 108.242 94.8909 108.22 94.7967H108.209C107.865 93.7011 109.557 92.8289 110.261 93.9509C110.586 94.4749 110.974 94.9248 111.403 95.3101C113.431 97.1541 116.478 97.7331 118.99 98.6286C120.618 99.2077 122.271 100.009 123.589 101.133C124.553 101.945 125.33 102.939 125.793 104.15C125.903 104.435 125.992 104.729 126.07 105.035C126.262 105.803 125.678 106.341 125.065 106.404Z" fill="#494949"/>
<path d="M118.032 67.8641C117.763 66.9188 117.494 65.9735 117.226 65.0272C117.067 64.4672 116.43 64.0671 115.856 64.2534C115.286 64.4386 114.913 65.0251 115.083 65.6232C115.351 66.5684 115.619 67.5137 115.888 68.4601C116.047 69.02 116.684 69.4202 117.258 69.2339C117.828 69.0476 118.201 68.4622 118.032 67.8641Z" fill="#494949"/>
<path d="M119.236 72.5016C118.862 71.117 116.72 71.7151 117.094 73.0975C119.995 83.8386 122.446 94.6961 124.437 105.644C124.693 107.055 126.835 106.445 126.58 105.048C124.588 94.1002 122.139 83.2427 119.236 72.5016Z" fill="#494949"/>
<path d="M126.517 105.165C126.499 105.409 126.47 105.632 126.432 105.854V105.865C126.05 107.987 124.582 109.597 122.886 110.935C121.19 112.263 118.911 113.493 118.235 115.683C118.235 115.694 118.224 115.715 118.215 115.725C117.828 116.831 115.933 116.733 116.041 115.439C116.049 115.334 116.059 115.228 116.068 115.122C116.46 110.098 116.481 105.058 116.131 100.025C116.116 99.7602 116.091 99.4967 116.077 99.232C115.971 97.8041 118.194 97.7818 118.3 99.1992C118.339 99.7274 118.379 100.257 118.407 100.786C118.63 104.392 118.652 107.992 118.504 111.594C119.089 111.056 119.716 110.538 120.366 110.053C121.759 109.026 123.583 107.793 124.128 106.048C124.219 105.772 124.268 105.495 124.285 105.199C124.294 105.125 124.304 105.051 124.313 104.987V104.977C124.493 104.286 125.22 104.01 125.793 104.15C126.219 104.259 126.551 104.593 126.517 105.165Z" fill="#494949"/>
<path d="M130.078 126.91C129.863 126.67 129.626 126.429 129.379 126.211C127.492 124.545 125.127 123.585 123.074 122.154C120.817 120.578 119.132 118.317 118.215 115.725C118.171 115.62 118.127 115.515 118.093 115.399C117.761 114.408 116.502 114.47 116.067 115.122C115.89 115.346 115.831 115.644 115.953 116.003C116.717 118.321 117.955 120.429 119.676 122.183C120.998 123.53 122.578 124.491 124.191 125.43C125.566 130.364 126.604 135.377 127.219 140.46C127.242 140.619 127.255 140.766 127.278 140.925C127.399 141.95 128.805 142.512 129.371 141.445C129.381 141.424 129.392 141.413 129.402 141.392C130.771 138.789 132.128 136.079 132.253 133.081L132.251 132.954C132.262 132.954 132.262 132.944 132.251 132.933C132.315 130.677 131.563 128.561 130.078 126.91ZM128.991 137.174C128.475 133.794 127.78 130.448 126.937 127.136C128.575 128.34 129.846 129.846 130.017 132.067C130.149 133.854 129.677 135.544 128.991 137.174Z" fill="#494949"/>
<path d="M150.724 150.722C150.477 149.825 149.854 149.168 149.085 148.693C148.658 148.424 148.189 148.218 147.71 148.067C145.997 147.51 144.061 147.581 142.282 147.555C140.28 147.51 138.248 147.529 136.263 147.146C133.29 146.554 129.853 144.657 129.403 141.393C129.369 141.255 129.356 141.119 129.343 140.981C129.262 139.765 127.64 139.599 127.219 140.462C127.147 140.612 127.108 140.803 127.121 141.014C127.317 144.24 129.557 146.769 132.373 148.178C134.378 149.175 136.553 149.514 138.746 149.661C138.758 149.725 138.738 149.788 138.76 149.862C139.706 153.712 140.199 157.644 140.246 161.612C140.252 161.962 140.425 162.245 140.682 162.442C141.197 162.837 142.023 162.835 142.34 162.132C142.452 161.876 142.576 161.621 142.71 161.365C143.388 159.999 144.259 158.737 145.322 157.62C146.532 156.364 148.033 155.548 149.34 154.407C149.957 153.868 150.455 153.194 150.677 152.449C150.688 152.449 150.688 152.439 150.688 152.439C150.858 151.895 150.892 151.322 150.724 150.722ZM147.016 153.392C145.172 154.668 143.584 156.163 142.287 157.907C142.067 155.158 141.635 152.434 141.002 149.743C141.711 149.764 142.411 149.774 143.11 149.786C144.635 149.827 146.528 149.714 147.895 150.551C149.423 151.503 148.001 152.71 147.016 153.392Z" fill="#494949"/>
<path d="M170.992 188.312C170.992 188.323 170.992 188.323 170.981 188.323C170.68 188.666 170.205 188.853 169.683 188.617C169.662 188.617 169.652 188.606 169.631 188.597C169.513 188.535 169.396 188.473 169.278 188.411C168.169 187.845 167.059 187.259 165.991 186.608C165.254 186.163 164.548 185.687 163.885 185.167C162.631 184.19 161.514 183.064 160.636 181.69C159.726 180.274 159.205 178.683 159.084 177.001C159.003 175.785 159.039 174.651 158.77 173.608C158.735 173.429 158.68 173.238 158.614 173.07C158.383 172.47 158.026 171.914 157.467 171.383C154.622 168.725 150.328 169 146.828 167.856C144.159 166.984 141.517 165.192 140.682 162.441C140.583 162.146 140.514 161.829 140.468 161.502C140.267 160.108 142.407 159.494 142.608 160.909C142.631 161.068 142.655 161.215 142.71 161.363C143.491 164.792 147.37 165.857 150.46 166.436C153.337 166.997 156.405 167.544 158.678 169.491C158.892 169.668 159.096 169.855 159.29 170.065C159.988 170.785 160.509 171.603 160.829 172.519C160.994 172.941 161.095 173.373 161.165 173.827C161.471 175.897 161.119 177.872 162.112 179.815C163.583 182.673 166.383 184.4 169.177 185.851C169.669 186.119 170.159 186.365 170.65 186.613C170.671 186.624 170.682 186.633 170.703 186.644C171.055 186.829 171.229 187.113 171.265 187.408C171.312 187.724 171.19 188.055 170.992 188.312Z" fill="#494949"/>
<path d="M131.773 81.9078C131.171 81.9428 130.669 82.4149 130.677 83.0362L130.739 87.1699C130.747 87.7521 131.267 88.2993 131.867 88.2655C132.468 88.2305 132.972 87.7584 132.963 87.137L132.901 83.0034C132.893 82.4202 132.373 81.8729 131.773 81.9078Z" fill="#494949"/>
<path d="M130.32 91.9672C130.228 105.584 130.135 119.202 130.043 132.819C130.033 134.253 132.256 134.218 132.267 132.786C132.359 119.169 132.451 105.552 132.544 91.9344C132.553 90.5011 130.33 90.536 130.32 91.9672Z" fill="#494949"/>
<path d="M150.403 102.059L148.998 151.546C148.958 152.98 151.181 152.943 151.222 151.514L152.627 102.027C152.667 100.593 150.443 100.63 150.403 102.059Z" fill="#494949"/>
<path d="M161.635 130.493C161.638 129.912 161.268 129.314 160.632 129.282C160.074 129.253 159.424 129.664 159.421 130.284C159.412 131.88 159.403 133.475 159.394 135.071C159.391 135.652 159.761 136.25 160.397 136.282C160.955 136.311 161.605 135.9 161.608 135.28C161.617 133.683 161.626 132.088 161.635 130.493Z" fill="#494949"/>
<path d="M161.482 140.039C161.261 150.862 161.039 161.695 160.829 172.517C160.821 172.74 160.824 172.962 160.817 173.184C160.803 174.38 159.279 174.435 158.77 173.607C158.672 173.459 158.616 173.281 158.614 173.069C158.604 173.037 158.603 173.016 158.603 172.984C158.628 171.82 158.653 170.654 158.678 169.49C158.87 159.599 159.074 149.708 159.266 139.828C159.286 138.389 161.503 138.61 161.482 140.039Z" fill="#494949"/>
<path d="M170.68 128.517C170.748 127.085 168.524 127.125 168.456 128.55C167.51 148.157 167.787 167.81 169.285 187.383C169.394 188.805 171.618 188.78 171.509 187.35C170.012 167.777 169.734 148.124 170.68 128.517Z" fill="#494949"/>
<path d="M170.506 115.564C169.878 115.6 169.434 116.071 169.41 116.693C169.362 117.987 169.313 119.282 169.263 120.577C169.241 121.16 169.814 121.705 170.392 121.672C171.019 121.636 171.464 121.166 171.487 120.544C171.536 119.249 171.585 117.955 171.634 116.66C171.656 116.077 171.084 115.53 170.506 115.564Z" fill="#494949"/>
<path d="M169.882 194.151C168.204 195.922 165.797 197.09 164.825 199.434C164.395 200.446 162.642 199.995 162.731 198.914C163.118 194.335 163.495 189.745 163.883 185.166C163.891 185.028 163.91 184.891 163.919 184.753C163.963 184.149 164.358 183.635 165.013 183.626C165.564 183.617 166.185 184.128 166.141 184.72C166.087 185.346 166.033 185.982 165.988 186.607C165.734 189.501 165.492 192.384 165.259 195.288C165.917 194.696 166.607 194.124 167.276 193.543C168.343 192.638 169.645 191.254 169.667 189.781C169.673 189.517 169.638 189.263 169.539 189C169.484 188.821 169.406 188.632 169.297 188.453C169.287 188.442 169.276 188.421 169.275 188.41C169.058 188.033 169.095 187.672 169.281 187.394V187.384C169.529 186.978 170.045 186.726 170.523 186.836C170.789 186.885 171.045 187.041 171.218 187.334C171.229 187.355 171.251 187.387 171.262 187.407C171.338 187.533 171.403 187.648 171.458 187.774V187.785C171.666 188.247 171.789 188.722 171.839 189.198C172.026 190.985 171.133 192.83 169.882 194.151Z" fill="#494949"/>
<path d="M211.589 137.987C211.506 138.072 211.422 138.158 211.339 138.254C210.059 139.671 209.417 141.406 208.946 143.244C208.836 143.669 208.736 144.094 208.647 144.529C208.182 146.675 207.812 148.882 206.877 150.791C204.637 155.387 199.438 156.797 195.06 158.556C191.029 160.173 186.812 162.744 186.187 167.093C186.168 167.22 186.149 167.359 186.141 167.497C186.096 168.048 186.105 168.63 186.177 169.243C186.456 171.663 186.979 174.069 185.571 176.26C184.525 177.885 182.847 178.936 181.199 179.861C179.152 181.003 177.199 182.1 175.519 183.767C173.955 185.346 172.743 187.174 171.841 189.199C171.749 189.412 171.657 189.626 171.564 189.849C171.176 190.807 170.05 190.517 169.669 189.781C169.538 189.55 169.481 189.286 169.54 189C169.561 188.937 169.581 188.861 169.611 188.787C169.632 188.734 169.662 188.67 169.683 188.617C169.734 188.499 169.775 188.383 169.837 188.265C170.041 187.775 170.268 187.306 170.525 186.836C170.566 186.761 170.608 186.687 170.649 186.612C170.865 186.196 171.113 185.8 171.361 185.405C172.148 184.197 173.053 183.072 174.086 182.062C175.901 180.288 178.033 179.093 180.238 177.854C182.17 176.766 184.205 175.444 184.327 173.009C184.453 170.805 183.703 168.73 183.967 166.556V166.545C184.015 166.174 184.084 165.802 184.194 165.43C184.617 164.006 185.319 162.788 186.215 161.727C188.305 159.229 191.447 157.616 194.458 156.406C196.91 155.428 199.492 154.628 201.736 153.207C203.876 151.863 205.044 149.941 205.729 147.57C206.122 146.208 206.397 144.786 206.716 143.384C207.214 141.27 207.829 139.196 209.137 137.452C209.385 137.098 209.667 136.766 209.99 136.444C210.125 136.304 210.272 136.218 210.419 136.173C211.388 135.83 212.466 137.116 211.589 137.987Z" fill="#494949"/>
<path d="M209.136 137.451C209.079 139.389 209.023 141.317 208.946 143.244C208.939 143.445 208.931 143.636 208.923 143.837C208.906 144.123 208.814 144.358 208.648 144.529C208.054 145.215 206.654 145.014 206.701 143.87C206.709 143.711 206.717 143.542 206.715 143.383C207.298 128.394 207.362 113.392 206.939 98.3968C206.897 96.9678 209.12 96.935 209.162 98.364C209.535 111.392 209.526 124.435 209.136 137.451Z" fill="#494949"/>
<path d="M186.231 157.83C186.229 159.121 186.216 160.425 186.214 161.727C186.198 163.515 186.193 165.305 186.187 167.094L186.188 167.19C186.189 167.296 186.17 167.401 186.14 167.498C185.838 168.613 183.953 168.536 183.965 167.223C183.962 167 183.97 166.778 183.966 166.556V166.545C183.976 163.645 183.987 160.754 184.008 157.863C184.018 156.423 186.241 156.39 186.231 157.83Z" fill="#494949"/>
<path d="M184.086 100.332C184.024 98.9028 181.8 98.9314 181.862 100.365C182.43 113.308 183.706 139.08 184.274 152.023C184.336 153.452 186.56 153.423 186.498 151.99C185.93 139.047 184.654 113.275 184.086 100.332Z" fill="#494949"/>
<path d="M159.279 40.6467C156.499 39.4908 154.165 42.0916 153.512 44.7719C153.125 46.3618 153.027 48.0978 152.993 49.7343C152.957 51.4503 153.101 53.217 153.658 54.8387C154.482 57.2405 157.004 60.8565 159.767 59.1035C164.479 56.1121 164.604 42.8623 159.279 40.6467Z" fill="#494949"/>
<path d="M180.084 60.0954C182.43 60.2171 184.119 58.5065 184.877 56.779C186.683 52.6633 186.731 48.0057 185.274 43.8838C184.688 42.2282 183.848 40.1333 181.84 39.3881C179.745 38.6111 177.965 40.0275 177.124 41.5835C175.223 45.0947 173.008 59.7302 180.084 60.0954Z" fill="#494949"/>
<path d="M142.391 34.938C141.847 34.8289 141.297 35.1306 141.158 35.6832C140.778 37.1842 140.539 38.7159 140.42 40.2603C140.379 40.7938 140.939 41.2935 141.454 41.2638C142.047 41.23 142.413 40.7991 142.458 40.2307C142.472 40.038 142.489 39.8464 142.508 39.6538C142.517 39.5723 142.523 39.4887 142.534 39.4071C142.501 39.6443 142.539 39.368 142.542 39.3373C142.586 38.9816 142.636 38.627 142.696 38.2734C142.813 37.5663 142.961 36.8656 143.137 36.1712C143.267 35.6535 142.928 35.0459 142.391 34.938Z" fill="#494949"/>
<path d="M153.177 13.6686C147.693 18.2584 143.829 24.6404 142.261 31.6141C141.974 32.8907 143.95 33.3861 144.239 32.1021C145.736 25.4449 149.408 19.4662 154.638 15.0881C155.643 14.2465 154.174 12.8344 153.177 13.6686Z" fill="#494949"/>
<path d="M171.788 71.9046C171.478 71.5563 170.9 71.5341 170.514 71.7511C170.165 71.948 169.921 72.2761 169.793 72.6455C169.725 72.7133 169.653 72.7789 169.607 72.871C168.898 74.2842 169.18 76.1059 170.364 77.1825C170.765 77.5477 171.481 77.6101 171.861 77.1603C173.146 75.6412 173.113 73.3865 171.788 71.9046Z" fill="#494949"/>
<path d="M308.604 150.5V128.417H263.187L299.854 56.75H318.604L289.229 113.417H309.02V94.6667L325.687 85.7083V113.417H336.729V128.417H326.104V150.5H308.604Z" fill="#424242"/>
</svg>
